<svg xmlns="http://www.w3.org/2000/svg" viewBox="0 0 500 500"><g id="freepik--background-simple--inject-125"><path d="M426.38,92.29l-2.43-4c-20.52-33.8-57.61-54.18-96.72-51.71a102.44,102.44,0,0,0-15,2.06c-35.56,7.61-66.49,34.5-79.32,68.93-7.54,20.26-9.65,43.57-24,59.65-18.63,20.92-50.25,21.58-78.06,20.71s-59.44-.13-78,20.88c-11.61,13.15-15.3,31.86-14.36,49.48,2.47,46.64,35,88.34,76.31,109.07s90,22.59,135.23,13.47C313.49,368,373.75,333,410,278.77S455.37,150.77,426.38,92.29Z" style="fill:#f5f5f5"></path></g><g id="freepik--Floor--inject-125"><path d="M441.46,461.52c0,.14-89.75.26-200.45.26s-200.47-.12-200.47-.26,89.73-.26,200.47-.26S441.46,461.37,441.46,461.52Z" style="fill:#263238"></path></g><g id="freepik--Character--inject-125"><path d="M248.48,149.27l7.58,34.67L278,207l-15.44,35.61,6,10.2s33.21-37.12,32.3-46.2c-1.58-15.84-35.09-49-42.63-55.24C255.71,149.27,248.48,149.27,248.48,149.27Z" style="fill:#ffbe9d"></path><path d="M289.57,201.8c0,.09-.78,0-2,.1a12.66,12.66,0,0,0-4.52,1.29,12.49,12.49,0,0,0-3.72,2.87c-.81.92-1.19,1.58-1.27,1.54a4.73,4.73,0,0,1,1-1.77,11.1,11.1,0,0,1,8.51-4.3A5,5,0,0,1,289.57,201.8Z" style="fill:#eb996e"></path><polygon points="205.64 425.99 209.94 461.29 226.19 458.93 227.29 424.14 205.64 425.99" style="fill:#ffbe9d"></polygon><path d="M226.25,451.93s-10.91,8.81-17,2.34l-1.21,3.44L203.28,482a3.17,3.17,0,0,0,2.12,3.68,3.22,3.22,0,0,0,3.3-.88c4.41-4.73,20.52-22.23,20.19-24.41l-.5-5.83a3,3,0,0,0-2.14-2.59Z" style="fill:#FD904D"></path><g style="opacity:0.6000000000000001"><path d="M206,485.75l22.77-27.43.09,1.27c.23,1.38-.35,2-1,2.9-1.8,2.77-6.89,9.05-19.09,22.27a3.2,3.2,0,0,1-2.81,1Z" style="fill:#fff"></path></g><g style="opacity:0.6000000000000001"><path d="M224.85,454.79a1.84,1.84,0,0,0-.35,2.47,1.88,1.88,0,0,0,2.51.36,1.78,1.78,0,1,0-2.29-2.71" style="fill:#fff"></path></g><path d="M212.12,472.11c-.17.1-1-1.43-2.88-2.15s-3.55-.23-3.6-.41.34-.33,1.06-.48a5,5,0,0,1,2.8.28,4.91,4.91,0,0,1,2.21,1.7C212.11,471.64,212.19,472.08,212.12,472.11Z" style="fill:#263238"></path><path d="M210.2,476.3c-.14.14-1.2-.77-2.83-1.1s-3,0-3-.17,1.34-.89,3.19-.48S210.35,476.2,210.2,476.3Z" style="fill:#263238"></path><path d="M215.85,466.66c-.13.15-1.76-1.25-4.24-2S207,464.16,207,464s2.21-.74,4.86.08S216,466.57,215.85,466.66Z" style="fill:#263238"></path><path d="M215.86,459.39c-.07.18-1.82-.39-4.05-.31s-3.95.72-4,.54,1.62-1.15,4-1.2S216,459.24,215.86,459.39Z" style="fill:#263238"></path><path d="M210.54,459.11a2.57,2.57,0,0,1,.09-1.14,7.7,7.7,0,0,1,1.27-2.87,3.58,3.58,0,0,1,1.73-1.51,1.3,1.3,0,0,1,1.4.43,2,2,0,0,1,.33,1.4A4.49,4.49,0,0,1,211,459a5.16,5.16,0,0,1-4.77-3.18,1.67,1.67,0,0,1,.08-1.46,1.26,1.26,0,0,1,1.37-.51,4.39,4.39,0,0,1,1.91,1.25,8.56,8.56,0,0,1,1.83,2.55,2.55,2.55,0,0,1,.35,1.09,13.33,13.33,0,0,0-2.51-3.3,4.15,4.15,0,0,0-1.69-1.05.68.68,0,0,0-.75.27,1.16,1.16,0,0,0,0,1,4.62,4.62,0,0,0,4.17,2.7,3.88,3.88,0,0,0,3.76-3,1.51,1.51,0,0,0-.19-1,.7.7,0,0,0-.77-.25,3.28,3.28,0,0,0-1.49,1.25A11.49,11.49,0,0,0,210.54,459.11Z" style="fill:#263238"></path><path d="M270.05,453.8c-.38-.54-3.78-12.36-3.78-12.36l21-5.45,3,17Z" style="fill:#ffbe9d"></path><path d="M290.11,449.67l0,1.36s23.17,9,23.46,13.35l-45.77.31.52-15.23C275.17,452.56,282.29,452.87,290.11,449.67Z" style="fill:#FD904D"></path><g style="opacity:0.6000000000000001"><path d="M273,454.3a1.86,1.86,0,0,0-1.28,2.14,1.79,1.79,0,0,0,2.11,1.28,2,2,0,0,0,1.34-2.27,1.86,1.86,0,0,0-2.34-1.1" style="fill:#fff"></path></g><g style="opacity:0.6000000000000001"><path d="M267.82,464.69,268,461l43.82,1s2,.87,1.82,2.31Z" style="fill:#fff"></path></g><path d="M290.3,451.15c0,.23-1.13.34-2.22,1.06s-1.68,1.67-1.88,1.58.12-1.38,1.46-2.23S290.34,451,290.3,451.15Z" style="fill:#263238"></path><path d="M295.11,453.11c.05.21-.91.6-1.67,1.55s-1,1.95-1.18,1.94-.38-1.27.58-2.43S295.1,452.89,295.11,453.11Z" style="fill:#263238"></path><path d="M297.88,458.83c-.21.05-.53-1.06,0-2.29s1.61-1.72,1.7-1.54-.54.85-1,1.86S298.1,458.81,297.88,458.83Z" style="fill:#263238"></path><path d="M258.83,251.71c1,.62,13.58,39.18,18.39,95.31C281.29,394.48,290,441.6,290,441.6l-22.65,4.2S248.06,387,234.75,345.65c-11.27-35-13.63-60.74-13.63-60.74l-4.23-33.2Z" style="fill:#263238"></path><path d="M190.17,230.47s-23.44,24.65-21.69,52.65c1.05,16.76,37.5,160.41,37.5,160.41l22.41-.6-6.84-187.51Z" style="fill:#263238"></path><path d="M225.06,280A25.09,25.09,0,0,1,226,277a55.48,55.48,0,0,0,1.76-7.2,54.91,54.91,0,0,0,.76-7.37,27,27,0,0,1,.12-3.09,3,3,0,0,1,.13.83c.06.53.1,1.31.11,2.26a42,42,0,0,1-.6,7.46,40.37,40.37,0,0,1-1.94,7.23c-.33.9-.63,1.61-.86,2.1A3,3,0,0,1,225.06,280Z" style="fill:#455a64"></path><path d="M207.78,437.89a4.74,4.74,0,0,1-.14-.49l-.36-1.44c-.32-1.28-.77-3.16-1.32-5.59-1.11-4.86-2.6-11.92-4.32-20.66s-3.64-19.18-6-30.72c-1.18-5.77-2.49-11.81-4-18.05s-3.14-12.66-4.81-19.25c-3.35-13.17-6.4-25.79-8.23-37.45a152.09,152.09,0,0,1-1.78-16.65,76.21,76.21,0,0,1,.74-14.57,67.78,67.78,0,0,1,2.87-11.69A69.83,69.83,0,0,1,184,253c1.15-2.21,2.11-3.89,2.83-5l.8-1.26a3.91,3.91,0,0,1,.29-.42l-.25.45L187,248c-.69,1.12-1.62,2.82-2.74,5a70.94,70.94,0,0,0-3.46,8.36A68.32,68.32,0,0,0,178,273.07a76.69,76.69,0,0,0-.66,14.5,151.84,151.84,0,0,0,1.81,16.6c1.86,11.62,4.91,24.22,8.26,37.4,1.67,6.58,3.32,13,4.8,19.26s2.77,12.29,3.94,18.06c2.33,11.55,4.21,22,5.89,30.75s3.1,15.81,4.15,20.69c.52,2.41.93,4.3,1.22,5.6.13.63.23,1.11.31,1.46S207.78,437.89,207.78,437.89Z" style="fill:#fff"></path><path d="M211,437.47s-.06-.17-.14-.49-.21-.83-.36-1.45c-.31-1.27-.77-3.15-1.31-5.57-1.11-4.85-2.6-11.89-4.31-20.62s-3.62-19.14-6-30.65c-1.18-5.76-2.48-11.78-4-18s-3.13-12.63-4.8-19.21c-3.34-13.15-6.37-25.74-8.19-37.37a146.61,146.61,0,0,1-1.76-16.62A76.76,76.76,0,0,1,181,273a68.81,68.81,0,0,1,2.87-11.66,69.87,69.87,0,0,1,3.56-8.34c1.15-2.21,2.1-3.89,2.82-5l.8-1.25c.18-.29.28-.42.28-.42s-.07.15-.24.44l-.75,1.29c-.69,1.11-1.61,2.81-2.73,5a71.43,71.43,0,0,0-3.46,8.35A68.65,68.65,0,0,0,181.34,273a77,77,0,0,0-.68,14.46,148.38,148.38,0,0,0,1.8,16.56c1.84,11.61,4.89,24.18,8.23,37.32,1.67,6.58,3.31,13,4.79,19.22s2.77,12.26,3.93,18c2.33,11.53,4.21,22,5.87,30.68s3.1,15.78,4.15,20.64c.52,2.42.93,4.3,1.21,5.6.13.62.24,1.11.31,1.46S211,437.47,211,437.47Z" style="fill:#fff"></path><path d="M277.73,352.69a1,1,0,0,1,.06.27c0,.21.06.48.11.8.09.74.22,1.77.38,3.08.31,2.72.75,6.57,1.29,11.33.27,2.39.56,5,.87,7.82s.79,5.81,1.22,9c.85,6.31,1.78,13.24,2.76,20.51,1.81,10.63,3.5,20.52,4.91,28.76l0,.19-.19.06c-7,1.86-12.88,3.16-17,4-2.06.42-3.68.72-4.78.92l-1.27.21-.43.05a2.16,2.16,0,0,1,.42-.12l1.25-.27,4.75-1c4.1-.9,9.95-2.26,16.94-4.16l-.16.24c-1.43-8.24-3.15-18.12-5-28.75-1-7.28-1.89-14.22-2.73-20.53-.41-3.16-.8-6.16-1.17-9l-.8-7.83c-.48-4.76-.86-8.63-1.13-11.35-.12-1.31-.22-2.34-.29-3.09,0-.33,0-.59-.06-.8A1,1,0,0,1,277.73,352.69Z" style="fill:#455a64"></path><path d="M272,444.51a9.08,9.08,0,0,1-1.71-5.68,17.74,17.74,0,0,1,.88,2.83A15.46,15.46,0,0,1,272,444.51Z" style="fill:#455a64"></path><path d="M279.73,443.05s-.1-.07-.19-.23v0c-.09-.47-.18-1.51-.41-2.71a23.16,23.16,0,0,1-.62-2.95,5.83,5.83,0,0,1,1.13,2.86,8.42,8.42,0,0,1,.11,2.8v0C279.77,442.93,279.77,443,279.73,443.05Z" style="fill:#455a64"></path><path d="M287.12,441.82c-.15,0-.08-1.53-.39-3.36s-.87-3.23-.73-3.3a8.62,8.62,0,0,1,1.12,6.66Z" style="fill:#455a64"></path><path d="M228.51,437.18a25.36,25.36,0,0,1-3.47,0c-2.14,0-5.09,0-8.36.09s-6.21.3-8.34.46a26.57,26.57,0,0,1-3.47.18,3.86,3.86,0,0,1,.91-.2c.59-.11,1.45-.22,2.52-.35,2.13-.25,5.09-.5,8.37-.61s6.24-.05,8.38.06c1.07.06,1.94.12,2.54.18A3.35,3.35,0,0,1,228.51,437.18Z" style="fill:#455a64"></path><path d="M224.37,443.34c-.14,0,.31-1.37.41-3.06s-.15-3,0-3.09a5.26,5.26,0,0,1,.52,3.12A5.11,5.11,0,0,1,224.37,443.34Z" style="fill:#455a64"></path><path d="M216.82,443.42a8.87,8.87,0,0,1-.49-3,9.26,9.26,0,0,1,0-3.05,18.17,18.17,0,0,1,.45,6.06Z" style="fill:#455a64"></path><path d="M210.88,443.35a10.22,10.22,0,0,1-1.34-6,15.35,15.35,0,0,1,.72,3A15.61,15.61,0,0,1,210.88,443.35Z" style="fill:#455a64"></path><path d="M266.73,192.52c0-9.58-9.36-24.9-9.36-24.9l-8.89-18.35-37.61-.41-20.74,9-3.19,2.72L196.08,222l-11.74,16.93C189,259.07,260,252.81,260,252.81l-8.36-33.73S266.73,202.09,266.73,192.52Z" style="fill:#FD904D"></path><g style="opacity:0.30000000000000004"><path d="M189.63,231.51c0,1.84,1.87,3.11,3.61,3.72s3.72,1,4.85,2.49c1,1.3,1,3.08,1,4.73q0,4.06,0,8.15c0,1,.29,2.37,1.31,2.39.74,0,1.23-.76,1.52-1.45a24.59,24.59,0,0,0,1.82-7c.17-1.71.28-3.67,1.65-4.71s3.41-.58,5.12-.11a67.4,67.4,0,0,0,32.82.72c3.8-.87,7.65-2.14,10.53-4.76.71-.65,1.41-1.65,1-2.51s-1.83-.82-2.84-.57c-10.81,2.7-21.41,7.45-32.53,6.87-9.89-.52-19-5.22-27.8-9.81"></path></g><path d="M244.72,149.23l-33.85-.37-11.28,4.9c-.21.08,5.18,24.06,14.17,27.47,9.26,3.49,35.91,3.1,36.79-6.87C251.25,166.53,244.72,149.23,244.72,149.23Z" style="fill:#ffbe9d"></path><path d="M232.64,183.22c-.07.05-.51-.68-1.38-1.71a15.73,15.73,0,0,0-4-3.33,15.46,15.46,0,0,0-4.89-1.81c-1.32-.25-2.17-.26-2.17-.35a6.19,6.19,0,0,1,2.23,0,13.66,13.66,0,0,1,9.13,5.28A5.94,5.94,0,0,1,232.64,183.22Z" style="fill:#eb996e"></path><path d="M239.32,218a15.44,15.44,0,0,1-3,.73c-1.86.36-4.46.76-7.35,1.06s-5.51.41-7.41.43a16.91,16.91,0,0,1-3.08-.11,19.07,19.07,0,0,1,3.06-.26c1.9-.12,4.51-.29,7.38-.58s5.47-.64,7.34-.91A22.65,22.65,0,0,1,239.32,218Z" style="fill:#263238"></path><path d="M235.77,223.4a29.65,29.65,0,0,1-3.24.51,72.06,72.06,0,0,0-7.72,1.56,74.15,74.15,0,0,0-7.5,2.41,32.3,32.3,0,0,1-3.07,1.15s.25-.2.75-.46,1.25-.62,2.18-1a53.46,53.46,0,0,1,15.32-4c1-.1,1.83-.16,2.4-.17A2.87,2.87,0,0,1,235.77,223.4Z" style="fill:#263238"></path><g style="opacity:0.30000000000000004"><path d="M218.13,220c-.19-10.39-2.38-21.27-9.16-29.14a27.49,27.49,0,0,1-13.38,29.36l0,2.79c1.67,3.15,4.06,6.07,7.3,7.54s7.43,1.19,10-1.32c1.35-1.35,2.12-3.17,3.39-4.6,2.12-2.36,5.34-3.33,8.39-4.2Z"></path></g><path d="M248.51,195.76a4.26,4.26,0,0,1-.38.92c-.26.58-.69,1.4-1.24,2.4a64.87,64.87,0,0,1-10.72,14.22c-.81.81-1.48,1.44-2,1.85a4.22,4.22,0,0,1-.79.62,36.93,36.93,0,0,1,2.49-2.73c1.54-1.66,3.61-4,5.7-6.79s3.79-5.41,5-7.35A35.14,35.14,0,0,1,248.51,195.76Z" style="fill:#263238"></path><path d="M226.31,78c3-3.79,11.09-3.78,13.15-1.55a6.14,6.14,0,0,1,8.2,2.15L256.33,80a8.87,8.87,0,0,1,4.21,1.38c1.19.92,1.83,2.72,1,4,3.07.59,4.54,5,2.45,7.3a3.25,3.25,0,0,1-.18,4.72,32.47,32.47,0,0,1,6.13,9.16,6.63,6.63,0,0,1,.72,4.48c-.44,1.48-2.28,2.6-3.58,1.78a3.79,3.79,0,0,1,.44,4.08c1.45-.06,2,2.15,1.1,3.26s-2.53,1.34-4,1.4-3,.09-4.15,1a1.29,1.29,0,0,0,.53.88,6,6,0,0,1,1.86,8c-.16.25-.31.48-.43.69-.77,1.25-2.77,2.47-4,3.23-3.16,1.92-5.13,1.72-8.75,2.49,1.15,2.29-4.43,7.89-11.55,3.21a131.05,131.05,0,0,1-37,7.49c-2,.14-4.42,0-5.42-1.71a5,5,0,0,1-4.67-1.2,14.73,14.73,0,0,1-3-4.05,8.72,8.72,0,0,1-6.78-7.44,10.82,10.82,0,0,1-4.57-7.39,6.35,6.35,0,0,1-4.18-8.3,38.48,38.48,0,0,1,3.39-12.07c-2.32-.35-3.39-3.38-2.59-5.59s2.8-3.73,4.7-5.12c-1.69.57-3.32-1.49-3-3.24s1.77-3,3.24-4.06a32.63,32.63,0,0,1,6.89-3.63c.62-3.07,4.25-6.76,7-8.28,11.05-6.14,19-8,34.17,1.66" style="fill:#263238"></path><path d="M238.24,149.89V95.44A4.63,4.63,0,0,0,234,90.8l-24.66-5.9c-7.89-.73-13,9-13.39,16.94-.44,8.79-.63,19.53.49,26.07a17,17,0,0,0,14.1,14.5s.2,9.55.2,9.55l.14,11.12c3.73-.68,26.92-14.19,26.92-14.19" style="fill:#ffbe9d"></path><path d="M209.84,121.07a12.67,12.67,0,0,0-3-.5c-.46,0-.9-.12-1-.44a2.46,2.46,0,0,1,.29-1.38c.43-1.13.87-2.31,1.33-3.55,1.84-5.06,3.17-9.21,3-9.28s-1.86,4-3.7,9c-.44,1.25-.87,2.43-1.27,3.57a2.67,2.67,0,0,0-.21,1.83,1.12,1.12,0,0,0,.77.66,3,3,0,0,0,.79.1A11.92,11.92,0,0,0,209.84,121.07Z" style="fill:#263238"></path><path d="M210.58,142.41s7.15.64,15.86-4.75c0,0-2,9.84-15.77,9.3Z" style="fill:#eb996e"></path><path d="M214.91,100.48c.18.49,2,.23,4.13.46s3.87.79,4.15.34c.12-.21-.19-.67-.89-1.14a7.24,7.24,0,0,0-6.3-.61C215.22,99.85,214.83,100.25,214.91,100.48Z" style="fill:#263238"></path><path d="M199,101.14c.32.4,1.57,0,3.08-.08s2.78.24,3.07-.19c.12-.22-.08-.63-.64-1a4.27,4.27,0,0,0-2.52-.64,4.21,4.21,0,0,0-2.44.86C199,100.51,198.81,100.94,199,101.14Z" style="fill:#263238"></path><path d="M190.45,108.5a9,9,0,0,1,1.85-5.79,31.69,31.69,0,0,0,2.3-2.49c1.37-2,1-4.71,1.49-7.11a10,10,0,0,1,5.77-7c2.41-1,5.21-1.06,7.45-2.42,1.66-1,2.87-2.66,4.58-3.57,3.34-1.76,7.42-.23,10.77,1.51.79,2.54-.71,4.85-2.16,7.08A9.18,9.18,0,0,1,216,92.75c-2.05.25-4.47-.08-5.83,1.47s-.68,4.31-1.83,6.14c-1.64,2.63-5.75,1.91-8.33,3.62-2,1.32-2.71,3.84-3.62,6s-2.58,4.55-5,4.58A26.58,26.58,0,0,1,190.45,108.5Z" style="fill:#263238"></path><path d="M219.81,86.58a46.61,46.61,0,0,1,17.78,2.16,8.43,8.43,0,0,1,4.5,2.74,8.22,8.22,0,0,1,1.18,4.5c.23,4.93-1.4,11.07-3,15.73l-5.93,4c-4.8-.85-3.1-9.15-3.11-13.25a9.7,9.7,0,0,1-6.14-8.22A10.71,10.71,0,0,1,219.81,86.58Z" style="fill:#263238"></path><path d="M234.3,114c0-2.82,3.45-3.57,5.95-2.25,1.37.72,2.47,2.23,2.47,5.23,0,8-8,6.35-8,6.12S234.27,117.27,234.3,114Z" style="fill:#ffbe9d"></path><path d="M237.12,120s.14.1.37.2a1.39,1.39,0,0,0,1,0c.85-.31,1.56-1.66,1.6-3.1a4.57,4.57,0,0,0-.39-2,1.61,1.61,0,0,0-1.05-1.07.71.71,0,0,0-.82.38c-.11.23-.06.39-.1.4s-.17-.13-.11-.47a1,1,0,0,1,.32-.5,1.08,1.08,0,0,1,.77-.2A2,2,0,0,1,240.2,115a4.72,4.72,0,0,1,.49,2.23c-.06,1.61-.88,3.12-2,3.45a1.47,1.47,0,0,1-1.27-.21C237.13,120.22,237.09,120,237.12,120Z" style="fill:#eb996e"></path><path d="M238.2,123.33s0,0,0,.1a.92.92,0,0,0,.12.3,1.86,1.86,0,0,0,1,.77,4.71,4.71,0,0,0,2,.3,6.58,6.58,0,0,0,1.27-.16,4.47,4.47,0,0,0,1.37-.5l-.1,0a4,4,0,0,0,6.46,2.16l-.14,0a1.69,1.69,0,0,0,1.09.64,2.26,2.26,0,0,0,1.28-.19,2,2,0,0,0,1-.9,2.68,2.68,0,0,0,.33-1.33,4.07,4.07,0,0,0-1-2.61,12.12,12.12,0,0,0-2.22-1.93v.19a2.83,2.83,0,0,0,1.16-2,4.13,4.13,0,0,0-.37-2.34,6.17,6.17,0,0,0-1.51-1.91,19.2,19.2,0,0,0-2-1.49l0,.18a3,3,0,0,0,.65-2.35,4.3,4.3,0,0,0-1-2.32,10.65,10.65,0,0,0-4.05-2.49l.07.13a5.29,5.29,0,0,0-6.12-6.2l.13.13a4.77,4.77,0,0,0-4.76-5.28l.11.1a4.51,4.51,0,0,0-2-3.37,4.41,4.41,0,0,0-3.39-.73l.1.07a4.37,4.37,0,0,0-.77-2,5.45,5.45,0,0,0-1.29-1.4,4.65,4.65,0,0,0-2.79-1h-.3l-.28,0a3.44,3.44,0,0,0-.5.09,5.94,5.94,0,0,0-.75.25l-.44.22-.14.08.15-.06.44-.2a6.94,6.94,0,0,1,.75-.23,3.49,3.49,0,0,1,.5-.08l.27,0h.3a4.48,4.48,0,0,1,2.71,1,5.56,5.56,0,0,1,1.26,1.37,4.37,4.37,0,0,1,.72,1.94v.09l.09,0a4.26,4.26,0,0,1,3.25.73,4.33,4.33,0,0,1,1.91,3.23v.1h.1a4.32,4.32,0,0,1,3.3,1.41,4.36,4.36,0,0,1,1.23,3.63l0,.16.16,0a5.07,5.07,0,0,1,5.85,5.94l0,.09.09,0a10.5,10.5,0,0,1,3.95,2.43,4,4,0,0,1,1,2.18,2.76,2.76,0,0,1-.59,2.17l-.09.11.11.07a9.4,9.4,0,0,1,3.41,3.3,3.92,3.92,0,0,1,.35,2.2,2.58,2.58,0,0,1-1.06,1.81l-.13.09.13.1a11.71,11.71,0,0,1,2.18,1.88,3.81,3.81,0,0,1,1,2.47,2.12,2.12,0,0,1-1.19,2.05,1.75,1.75,0,0,1-2.14-.38l-.05-.08-.08.06a3.86,3.86,0,0,1-4,.61,3.92,3.92,0,0,1-2.21-2.65l0-.09-.08,0a4.76,4.76,0,0,1-1.32.5,6.44,6.44,0,0,1-1.26.17,4.93,4.93,0,0,1-2-.26,1.87,1.87,0,0,1-1-.73C238.24,123.47,238.21,123.32,238.2,123.33Z" style="fill:#455a64"></path><path d="M268.06,113a2.78,2.78,0,0,0,.27-.5,4.08,4.08,0,0,0-.46-4.06,4.18,4.18,0,0,0-3-1.67l.07.09A5.48,5.48,0,0,0,264,103a5.32,5.32,0,0,0-1.66-1.57,13.16,13.16,0,0,0-2.23-.9A4.61,4.61,0,0,1,259,100a2.78,2.78,0,0,1-.79-.94c-.4-.74-.56-1.64-1.06-2.44a4.85,4.85,0,0,0-5-2.12l.14.12a6.38,6.38,0,0,0-7.49-6.82l.14.12a5.62,5.62,0,0,0-9-4.74h.13a7.77,7.77,0,0,0-2.88-1.54,11.9,11.9,0,0,0-2.9-.49,13.68,13.68,0,0,0-4.71.59,9.94,9.94,0,0,0-2.74,1.33,7.74,7.74,0,0,0-.62.51l-.2.19s.29-.25.86-.65a9.86,9.86,0,0,1,2.74-1.26,13.3,13.3,0,0,1,4.66-.54,11,11,0,0,1,2.85.5,7.38,7.38,0,0,1,2.8,1.51l.07.06.06,0a5.39,5.39,0,0,1,8.66,4.56V88l.14,0a6.23,6.23,0,0,1,5.31,1.6,6.3,6.3,0,0,1,1.91,5l0,.17.16,0a4.62,4.62,0,0,1,4.75,2c.47.74.64,1.63,1.06,2.41a2.77,2.77,0,0,0,.85,1,4.69,4.69,0,0,0,1.13.59,12.56,12.56,0,0,1,2.21.87,5.27,5.27,0,0,1,1.61,1.5,5.36,5.36,0,0,1,.94,3.76V107h.08a4.11,4.11,0,0,1,2.91,1.58,4.11,4.11,0,0,1,.52,4C268.16,112.87,268.05,113,268.06,113Z" style="fill:#455a64"></path><path d="M192,119.63a.77.77,0,0,0,0-.65,1.5,1.5,0,0,0-.5-.63,2.67,2.67,0,0,0-1-.44,4.57,4.57,0,0,1-1.28-.45,2.43,2.43,0,0,1-1-1.23,4.75,4.75,0,0,1-.31-1.81c0-.66.06-1.36,0-2.11a21,21,0,0,0-1.29-4.65,6.88,6.88,0,0,1-.26-2.61,3.22,3.22,0,0,1,1.32-2.33,12.27,12.27,0,0,1,2.74-1.11,4.91,4.91,0,0,0,1.39-.74,3.15,3.15,0,0,0,.93-1.32,15.72,15.72,0,0,0,.66-3.19,5.38,5.38,0,0,1,.46-1.54,2.48,2.48,0,0,1,1.12-1.1,8.69,8.69,0,0,1,2.18-.43,3.29,3.29,0,0,0,1.1-.35,2.13,2.13,0,0,0,.84-.79,7.57,7.57,0,0,0,.72-2.08,4.94,4.94,0,0,1,.89-1.86,4.8,4.8,0,0,1,3.38-1.86,4.89,4.89,0,0,1,3.45,1l.11.08.06-.13A7.59,7.59,0,0,1,212.19,83a7,7,0,0,1,2.65-.38,6.36,6.36,0,0,1,2.23.48,5.64,5.64,0,0,1,2.45,2,6.64,6.64,0,0,1,.44.73l.1.19,0,.06s0,0,0-.07l-.09-.2a5.35,5.35,0,0,0-.42-.74A5.53,5.53,0,0,0,217.11,83a6.42,6.42,0,0,0-2.26-.51,7.14,7.14,0,0,0-2.72.37,7.79,7.79,0,0,0-4.63,4.45l.16-.05a5.18,5.18,0,0,0-3.6-1.09,5.08,5.08,0,0,0-3.54,1.94,5.15,5.15,0,0,0-.94,1.94,7.53,7.53,0,0,1-.69,2,2.34,2.34,0,0,1-1.78,1,8.65,8.65,0,0,0-2.24.45,2.67,2.67,0,0,0-1.23,1.21,5.25,5.25,0,0,0-.49,1.61,15.74,15.74,0,0,1-.64,3.14,3,3,0,0,1-.86,1.22,4.7,4.7,0,0,1-1.32.72,11.94,11.94,0,0,0-2.79,1.14,3.07,3.07,0,0,0-1,1.11,4,4,0,0,0-.42,1.37,6.73,6.73,0,0,0,.28,2.7,21.77,21.77,0,0,1,1.31,4.61c.05.72,0,1.43,0,2.09a5,5,0,0,0,.33,1.86,2.64,2.64,0,0,0,1,1.28,4.81,4.81,0,0,0,1.31.44,2.66,2.66,0,0,1,1,.4,1.53,1.53,0,0,1,.51.6A1,1,0,0,1,192,119.63Z" style="fill:#455a64"></path><path d="M175.78,108.19s0,0,.08-.15.11-.27.19-.46l.72-1.78c.32-.77.67-1.73,1.19-2.78a7.08,7.08,0,0,1,2.5-3c.62-.39,1.36-.66,2.08-1a4.75,4.75,0,0,0,1.06-.7,2.77,2.77,0,0,0,.75-1.08c.33-.85.28-1.79.54-2.66a2.22,2.22,0,0,1,.7-1.14,4,4,0,0,1,1.25-.66,8.83,8.83,0,0,0,1.37-.63,2.5,2.5,0,0,0,1-1.19,11.83,11.83,0,0,0,.5-3.13,4,4,0,0,1,.44-1.49,2,2,0,0,1,1.22-.91c1-.28,2.18,0,3.34-.23a2.81,2.81,0,0,0,1.49-.9,7.5,7.5,0,0,0,.91-1.43c.26-.49.5-1,.79-1.42a3,3,0,0,1,1.12-1.07,4.62,4.62,0,0,1,3-.15,6.94,6.94,0,0,0,3,.08,8.24,8.24,0,0,0,2.56-1.35,14.1,14.1,0,0,1,2.27-1.44,8.28,8.28,0,0,1,4.72-.42,8.69,8.69,0,0,1,3.61,1.6,9.81,9.81,0,0,1,2.07,2.17,11.26,11.26,0,0,1,.92,1.67c.09.19.16.34.22.45s.07.15.08.15l-.06-.16-.19-.46a9.82,9.82,0,0,0-.89-1.7,9.72,9.72,0,0,0-2.07-2.23,8.8,8.8,0,0,0-3.65-1.66,8.35,8.35,0,0,0-4.84.41,13.88,13.88,0,0,0-2.31,1.45A7.86,7.86,0,0,1,205,80a7,7,0,0,1-2.94-.1,9,9,0,0,0-1.57-.18,3.16,3.16,0,0,0-1.59.35,3.23,3.23,0,0,0-1.21,1.14,15.79,15.79,0,0,0-.81,1.45,6.6,6.6,0,0,1-.88,1.38,2.57,2.57,0,0,1-1.36.83c-1.07.24-2.22-.06-3.34.23a2.22,2.22,0,0,0-1.36,1,4.06,4.06,0,0,0-.48,1.59,11.54,11.54,0,0,1-.47,3.07,2.38,2.38,0,0,1-.94,1.09,8.57,8.57,0,0,1-1.34.61,4.46,4.46,0,0,0-1.3.71,2.46,2.46,0,0,0-.77,1.24c-.26.92-.21,1.85-.52,2.64a3.28,3.28,0,0,1-1.7,1.7c-.71.37-1.45.65-2.09,1.06a7.12,7.12,0,0,0-2.53,3.1c-.52,1.07-.85,2-1.16,2.81l-.68,1.79c-.07.2-.12.35-.17.47Z" style="fill:#455a64"></path><path d="M183.78,99.36s-.05,0-.15,0a1,1,0,0,0-.42.12,1.75,1.75,0,0,0-.71,1.46,4.5,4.5,0,0,0,.24,1.18,4.9,4.9,0,0,1,.29,1.37,3.11,3.11,0,0,1-.48,1.5c-.28.5-.64,1-.93,1.59a2.28,2.28,0,0,0-.08,2c.29.67.82,1.21,1.1,1.88a3,3,0,0,1-.09,2.21c-.27.74-.67,1.48-.93,2.3a3.59,3.59,0,0,0-.18,1.31,3.31,3.31,0,0,0,.38,1.3,15.13,15.13,0,0,0,1.65,2.19,3.69,3.69,0,0,1,1,2.47,12.23,12.23,0,0,1-.81,2.75,3.88,3.88,0,0,0-.21,1.48,3.25,3.25,0,0,0,.45,1.41,13,13,0,0,0,1.85,2.16,6.56,6.56,0,0,1,1.53,2.17,18.37,18.37,0,0,0,1,2.43,3,3,0,0,0,.87,1,3.77,3.77,0,0,0,1.15.47,10.79,10.79,0,0,1,1.13.33,3.9,3.9,0,0,1,1,.58,8,8,0,0,1,1.4,1.63c.41.57.78,1.13,1.19,1.63a5.42,5.42,0,0,0,2.9,1.88,5.74,5.74,0,0,0,2.61.1,5.34,5.34,0,0,0,1.56-.55,4.08,4.08,0,0,0,.49-.32,6.21,6.21,0,0,1-2.06.78,5.92,5.92,0,0,1-2.57-.14,5.32,5.32,0,0,1-2.8-1.86c-.4-.49-.76-1-1.16-1.63a8.29,8.29,0,0,0-1.43-1.68,4.12,4.12,0,0,0-1-.61,9.45,9.45,0,0,0-1.15-.34,3.51,3.51,0,0,1-1.09-.46,2.64,2.64,0,0,1-.8-.89,20.51,20.51,0,0,1-1-2.41,6.55,6.55,0,0,0-1.57-2.25,13,13,0,0,1-1.81-2.11,3,3,0,0,1-.42-1.31,3.94,3.94,0,0,1,.2-1.39,12.19,12.19,0,0,0,.82-2.8,3.07,3.07,0,0,0-.28-1.44,6,6,0,0,0-.77-1.2,17.56,17.56,0,0,1-1.63-2.14,3.16,3.16,0,0,1-.35-1.21,3.22,3.22,0,0,1,.17-1.23c.24-.8.64-1.53.91-2.3a3.21,3.21,0,0,0,.08-2.36c-.31-.72-.84-1.25-1.12-1.87a2.11,2.11,0,0,1,.07-1.87c.26-.57.63-1.07.91-1.58a3.14,3.14,0,0,0,.47-1.58,4.81,4.81,0,0,0-.31-1.4,4.12,4.12,0,0,1-.25-1.15,1.68,1.68,0,0,1,.64-1.42A1,1,0,0,1,183.78,99.36Z" style="fill:#455a64"></path><path d="M267.85,112.79a3,3,0,0,0,.63-.1,4.16,4.16,0,0,0,1.63-.82,4.26,4.26,0,0,0,1.55-2.44,4.5,4.5,0,0,0-.87-3.73,11.34,11.34,0,0,0-1.68-1.54,5.37,5.37,0,0,1-1.6-1.81,3.47,3.47,0,0,1,0-2.54c.25-.87.67-1.73.91-2.7A7.84,7.84,0,0,0,262,87.49l.08.19a3.88,3.88,0,0,0,.59-1.78A5,5,0,0,0,262.4,84a5.61,5.61,0,0,0-.9-1.71A6.69,6.69,0,0,0,260.07,81a12.49,12.49,0,0,0-5.37-1.82,18.88,18.88,0,0,0-5.37.07l.13.11A5.67,5.67,0,0,0,246,74.61a5.77,5.77,0,0,0-2.83-.38,9.23,9.23,0,0,0-2.57.84,5.1,5.1,0,0,1-1.22.35,3.23,3.23,0,0,1-1.2-.06,9.72,9.72,0,0,1-2.17-.9,8.54,8.54,0,0,0-2.07-.81,7.08,7.08,0,0,0-2-.16,6.78,6.78,0,0,0-3.26,1.09,6.87,6.87,0,0,0-1.84,1.8A6.13,6.13,0,0,0,226,77.8a3.94,3.94,0,0,0-.17.53s.06-.18.21-.52a7,7,0,0,1,.78-1.39,6.9,6.9,0,0,1,1.84-1.74,6.77,6.77,0,0,1,5.19-.87,8.4,8.4,0,0,1,2,.8,9.92,9.92,0,0,0,2.2.94,3.43,3.43,0,0,0,1.28.06,5.17,5.17,0,0,0,1.26-.36,9.47,9.47,0,0,1,2.53-.81,5.58,5.58,0,0,1,2.72.37,5.45,5.45,0,0,1,3.33,4.54v.12h.12a18.47,18.47,0,0,1,5.31-.07,12.29,12.29,0,0,1,5.26,1.78,6.46,6.46,0,0,1,1.38,1.28,5.43,5.43,0,0,1,.86,1.63,4.79,4.79,0,0,1,.21,1.8,3.8,3.8,0,0,1-.55,1.67l-.1.15.18,0a7.61,7.61,0,0,1,6.29,9.33c-.23.94-.64,1.8-.9,2.69a3.67,3.67,0,0,0,0,2.67,5.49,5.49,0,0,0,1.66,1.87,11.2,11.2,0,0,1,1.67,1.51,4.35,4.35,0,0,1,.87,3.6,4.17,4.17,0,0,1-1.48,2.41,4.5,4.5,0,0,1-1.6.84C268.06,112.76,267.85,112.78,267.85,112.79Z" style="fill:#263238"></path><path d="M180.66,94a.85.85,0,0,0,0-.15c0-.12,0-.27,0-.45,0-.41,0-1,.06-1.73S180.84,90,181,89a15.88,15.88,0,0,1,.86-3.5,10.14,10.14,0,0,1,2.34-3.63,7.34,7.34,0,0,1,2-1.38,22.49,22.49,0,0,1,2.44-.86A7.24,7.24,0,0,0,191,78.35,11.86,11.86,0,0,0,193,76.22c.57-.78,1.11-1.6,1.76-2.36A8.27,8.27,0,0,1,197,72a14.36,14.36,0,0,1,5.69-1.55,38.6,38.6,0,0,1,5.56-.1,28.45,28.45,0,0,1,9.15,2,20.21,20.21,0,0,1,5.41,3.27c.28.25.54.46.75.66l.51.52.32.32.11.1s0,0-.09-.12l-.31-.34-.49-.53c-.21-.21-.46-.43-.74-.68a19.53,19.53,0,0,0-5.4-3.36,28.24,28.24,0,0,0-9.21-2.07,37.54,37.54,0,0,0-5.59.08,14.67,14.67,0,0,0-5.79,1.58,8.28,8.28,0,0,0-2.35,2c-.66.76-1.21,1.59-1.78,2.37a10.74,10.74,0,0,1-1.87,2.09,6.88,6.88,0,0,1-2.37,1.23,21,21,0,0,0-2.46.88,7.56,7.56,0,0,0-2,1.42,10.42,10.42,0,0,0-2.36,3.72,15.05,15.05,0,0,0-.83,3.54c-.13,1.07-.17,2-.19,2.74s0,1.34,0,1.74v.45C180.65,94,180.65,94,180.66,94Z" style="fill:#263238"></path><path d="M215.33,123.55,209.6,126l-.55.23a12.08,12.08,0,0,0,1.28,2.86,3.13,3.13,0,0,0,2.25,1.4,3.53,3.53,0,0,0,2.07-.65,4.15,4.15,0,0,0,1.65-3A4.43,4.43,0,0,0,215.33,123.55Z" style="fill:#eb996e"></path><path d="M212.24,130.57a4.67,4.67,0,0,0,2.21-.69,3.74,3.74,0,0,0,1.41-2,4.55,4.55,0,0,0-.13-3,4.39,4.39,0,0,0-.33-.73,1.36,1.36,0,0,0-.18-.28c-.06,0,0,0-.13,0l-1.39.62-2.41,1.06a10.46,10.46,0,0,1-2.27.85,11.62,11.62,0,0,1,2.12-1.18l2.36-1.15c.46-.22.89-.43,1.43-.67a.6.6,0,0,1,.63.12,1.38,1.38,0,0,1,.29.4,5.27,5.27,0,0,1,.36.8,4.94,4.94,0,0,1,.1,3.32,4,4,0,0,1-1.67,2.14,3.39,3.39,0,0,1-1.75.51A1.15,1.15,0,0,1,212.24,130.57Z" style="fill:#263238"></path><path d="M242.83,121.75a4.42,4.42,0,0,1,1.24.62,5.39,5.39,0,0,1,2.11,3.07,5.59,5.59,0,0,1,.09,2.62,6.41,6.41,0,0,1-1.3,2.71,6.55,6.55,0,0,1-2.67,2,6,6,0,0,1-3.55.28,6.43,6.43,0,0,1-3.14-1.67,5.84,5.84,0,0,1-1.63-2.9,6.22,6.22,0,0,1,1.27-5.33,5.52,5.52,0,0,1,1.74-1.28,5.62,5.62,0,0,1,1.55-.5,3.28,3.28,0,0,1,1,0,1.2,1.2,0,0,1,.35.09,4.07,4.07,0,0,0-1.36,0,6.13,6.13,0,0,0-1.49.53,5.46,5.46,0,0,0-1.66,1.27,6,6,0,0,0-1.15,5.13,5.52,5.52,0,0,0,1.56,2.74,6.25,6.25,0,0,0,3,1.6,5.75,5.75,0,0,0,3.37-.27A6.41,6.41,0,0,0,246,128a5.7,5.7,0,0,0-.05-2.51,5.45,5.45,0,0,0-2-3A10,10,0,0,0,242.83,121.75Z" style="fill:#e0e0e0"></path><path d="M218.07,112a1.73,1.73,0,0,0,1.69,1.72,1.66,1.66,0,0,0,1.77-1.59,1.73,1.73,0,0,0-1.7-1.72A1.65,1.65,0,0,0,218.07,112Z" style="fill:#263238"></path><path d="M200.77,111.81a1.72,1.72,0,0,0,1.7,1.72,1.65,1.65,0,0,0,1.76-1.59,1.73,1.73,0,0,0-1.7-1.72A1.65,1.65,0,0,0,200.77,111.81Z" style="fill:#263238"></path><path d="M198.29,107.55c.22.3,1.73-.86,3.76-.76s3.44,1.37,3.68,1.09c.12-.12-.09-.65-.7-1.23a4.58,4.58,0,0,0-5.94-.27C198.43,106.91,198.19,107.41,198.29,107.55Z" style="fill:#263238"></path><path d="M215.84,107.75c.26.27,1.74-1,3.9-1.12s3.81,1,4,.67c.11-.13-.17-.63-.89-1.13a5.29,5.29,0,0,0-3.24-.89,5.07,5.07,0,0,0-3.08,1.25C215.92,107.11,215.71,107.63,215.84,107.75Z" style="fill:#263238"></path><g style="opacity:0.30000000000000004"><path d="M204.8,238.36c-4.42,4.16-4.81,10.92-4.88,17-.15,12.48-.23,25.1-3.06,37.26-1.21,5.21-2.93,10.4-2.72,15.74.19,4.51,1.75,8.83,3.29,13.06l-1.11,1c-.23,2.05,2.72,3.3,4.45,2.18s2.18-3.52,1.82-5.55-1.37-3.89-1.93-5.87c-1.91-6.81,1.51-13.8,3.28-20.64C208.5,275,202.17,256.3,204.8,238.36Z"></path></g><path d="M189.41,231.48s41.38,20,65.49.94l-1.21-4.91s-26.39,16.08-60.56-1.3Z" style="fill:#455a64"></path><path d="M207.66,230.47a2.38,2.38,0,0,1,1,1.66l-2.52-.65S207.18,230.51,207.66,230.47Z" style="fill:#263238"></path><path d="M200.63,229.56a23.3,23.3,0,0,0-2.26,5.52c-4.73,18.47.26,39.62-5,58.23-1.6,5.72-4.18,11.64-2.63,17.37,1.07,3.93,4,7.43,3.81,11.49l1-.11,4.5-.27a44.06,44.06,0,0,0-3.08-11.5c-1.9-4.15,1.3-12.45,2.58-17.06s2.47-17.09,2.47-26.49,1.44-31.46,4.15-35.2l1.44-1.07-5-1.34a2.27,2.27,0,0,0-1.86.32Z" style="fill:#455a64"></path><path d="M200.76,229.48a27.51,27.51,0,0,1-1.29,2.94,29.81,29.81,0,0,1-1.16,3,6.23,6.23,0,0,1,.68-3.2A6.44,6.44,0,0,1,200.76,229.48Z" style="fill:#263238"></path><path d="M206.15,231.64a27.84,27.84,0,0,1-.94,2.91,28.11,28.11,0,0,1-.78,2.95,5.61,5.61,0,0,1,.28-3.1A5.75,5.75,0,0,1,206.15,231.64Z" style="fill:#263238"></path><polygon points="194.59 322.17 194.47 320.24 199.81 319.89 200.09 321.79 194.59 322.17" style="fill:#e0e0e0"></polygon><path d="M197,317.14c0,.14-.69.35-1.59.47s-1.64.09-1.65-.05.69-.35,1.59-.47S197,317,197,317.14Z" style="fill:#263238"></path><path d="M195,315c0,.14-.41.35-1,.47s-1,.11-1.07,0,.4-.35,1-.48S194.94,314.87,195,315Z" style="fill:#263238"></path><path d="M196.82,312.51a6.5,6.5,0,0,1-2.54.65,6.75,6.75,0,0,1-2.61.14,13.24,13.24,0,0,1,5.15-.79Z" style="fill:#263238"></path><path d="M193,311.18c0,.15-.44.29-1,.32s-1-.07-1-.21.45-.28,1-.31S193,311,193,311.18Z" style="fill:#263238"></path><path d="M192.3,308.57c0,.14-.39.36-1,.39s-1-.12-1-.26.45-.22,1-.26S192.27,308.43,192.3,308.57Z" style="fill:#263238"></path><path d="M192.75,306.41c0,.14-.53.26-1.18.26s-1.18-.12-1.18-.26.53-.26,1.18-.26S192.75,306.26,192.75,306.41Z" style="fill:#263238"></path><path d="M192.94,303.62c0,.14-.5.24-1.09.22s-1.08-.15-1.08-.29.5-.25,1.09-.23S192.94,303.47,192.94,303.62Z" style="fill:#263238"></path><path d="M195.35,301.52c0,.15-.94.2-2.08.12s-2.06-.26-2.05-.41a8.52,8.52,0,0,1,4.13.29Z" style="fill:#263238"></path><path d="M194,298.93c0,.15-.5.21-1.08.14s-1-.24-1-.38.5-.21,1.08-.14S194,298.79,194,298.93Z" style="fill:#263238"></path><path d="M195.23,295.9c0,.14-.58.18-1.24.1s-1.2-.28-1.18-.42.58-.19,1.24-.1S195.25,295.76,195.23,295.9Z" style="fill:#263238"></path><path d="M195.36,293.4c0,.14-.47.19-1,.1s-.93-.28-.91-.42.47-.19,1-.1S195.38,293.26,195.36,293.4Z" style="fill:#263238"></path><path d="M195.8,291.07c-.05.14-.41.13-.81.09s-.75-.08-.78-.22.34-.34.83-.29S195.85,290.94,195.8,291.07Z" style="fill:#263238"></path><path d="M199,289a5.21,5.21,0,0,1-2.27.13,5.42,5.42,0,0,1-2.25-.39A10,10,0,0,1,199,289Z" style="fill:#263238"></path><path d="M197.14,285.81c0,.15-.39.28-.89.29s-.89-.09-.89-.24.39-.27.88-.28S197.13,285.67,197.14,285.81Z" style="fill:#263238"></path><path d="M198,283.12c0,.15-.55.25-1.22.24s-1.2-.15-1.2-.29.55-.25,1.22-.23S198,283,198,283.12Z" style="fill:#263238"></path><ellipse cx="196.63" cy="281.01" rx="0.89" ry="0.26" style="fill:#263238"></ellipse><path d="M197.9,278.34c0,.15-.45.26-1,.26s-1-.11-1-.26.46-.26,1-.26S197.9,278.2,197.9,278.34Z" style="fill:#263238"></path><path d="M197.9,275.92c0,.15-.48.26-1.08.26s-1.08-.11-1.08-.26.48-.26,1.08-.26S197.9,275.78,197.9,275.92Z" style="fill:#263238"></path><path d="M199.6,272c0,.15-.83.23-1.83.42s-1.92,0-1.91-.1.83-.23,1.83-.42A2.82,2.82,0,0,1,199.6,272Z" style="fill:#263238"></path><path d="M197.9,269.18c0,.14-.36.26-.79.26s-.8-.12-.8-.26.36-.26.8-.26S197.9,269,197.9,269.18Z" style="fill:#263238"></path><path d="M197.84,266.5c0,.15-.32.26-.7.26s-.7-.11-.7-.26.31-.26.7-.26S197.84,266.36,197.84,266.5Z" style="fill:#263238"></path><ellipse cx="197.23" cy="263.7" rx="0.8" ry="0.26" style="fill:#263238"></ellipse><path d="M197.65,261.09c0,.15-.32.27-.7.27s-.7-.12-.7-.27.31-.26.7-.26S197.65,261,197.65,261.09Z" style="fill:#263238"></path><path d="M199.87,258.68s-.12.09-.33.12l-.09,0h0v-.29h.06l.21,0,.51,0v.44c-.4,0-.89,0-1.41,0a7.11,7.11,0,0,1-2.66-.26,6.88,6.88,0,0,1,2.66-.26c.52,0,1,0,1.41,0v.44l-.51,0-.21,0h-.06v-.29h.13C199.75,258.59,199.88,258.63,199.87,258.68Z" style="fill:#263238"></path><ellipse cx="197.23" cy="256.07" rx="0.95" ry="0.26" style="fill:#263238"></ellipse><path d="M198.26,252.73c0,.14-.43.26-1,.26s-1-.12-1-.26.42-.26,1-.26S198.26,252.58,198.26,252.73Z" style="fill:#263238"></path><path d="M198.39,249.83c0,.15-.46.24-1,.21s-1-.17-1-.31.46-.24,1-.21S198.4,249.69,198.39,249.83Z" style="fill:#263238"></path><path d="M198.59,246.68c0,.14-.47.2-1,.14s-1-.23-1-.37.47-.21,1-.15S198.61,246.53,198.59,246.68Z" style="fill:#263238"></path><path d="M202.55,244.49a15.33,15.33,0,0,1-5.66-.51,8.2,8.2,0,0,1,2.86,0A8.08,8.08,0,0,1,202.55,244.49Z" style="fill:#263238"></path><path d="M199.76,240.45c0,.14-.49.24-1.07.23s-1.05-.16-1.05-.3.48-.24,1.07-.22S199.76,240.31,199.76,240.45Z" style="fill:#263238"></path><path d="M200.24,238.18c0,.14-.55.15-1.15,0s-1.06-.35-1-.5.54-.14,1.14,0S200.27,238,200.24,238.18Z" style="fill:#263238"></path><path d="M201.13,234.55c0,.14-.62.07-1.28-.16s-1.15-.52-1.11-.65.62-.07,1.28.16S201.18,234.42,201.13,234.55Z" style="fill:#263238"></path><path d="M202.08,232.11c0,.13-.6.1-1.21-.19s-1-.7-.91-.82.57.08,1.14.35S202.12,232,202.08,232.11Z" style="fill:#263238"></path><path d="M203.85,230.42c-.08.12-.59-.11-1.14-.51s-.92-.81-.83-.93.59.11,1.14.51S203.94,230.3,203.85,230.42Z" style="fill:#263238"></path><path d="M209.92,235.06c-.14,0-.3-.52-.25-1.19s.31-1.17.44-1.13.13.55.08,1.17S210.07,235.05,209.92,235.06Z" style="fill:#263238"></path><path d="M207.37,234c-.15,0-.2-.4-.13-.86s.24-.8.38-.77.2.4.13.86S207.51,234,207.37,234Z" style="fill:#263238"></path><path d="M212.81,238.33a8.59,8.59,0,0,1,.34-5,8,8,0,0,1,0,2.5A7.48,7.48,0,0,1,212.81,238.33Z" style="fill:#263238"></path><path d="M216.45,236.08c-.14,0-.29-.51-.33-1.17s0-1.2.19-1.21.29.52.33,1.18S216.6,236.08,216.45,236.08Z" style="fill:#263238"></path><path d="M220.12,236.22c-.14,0-.27-.43-.28-1s.08-1,.23-1,.27.44.29,1S220.27,236.22,220.12,236.22Z" style="fill:#263238"></path><path d="M223.23,236.77c-.14,0-.27-.56-.28-1.26s.09-1.27.24-1.27.27.56.28,1.26S223.38,236.76,223.23,236.77Z" style="fill:#263238"></path><path d="M226.29,236.49c-.14,0-.29-.44-.33-1s0-1,.19-1,.29.44.33,1S226.43,236.48,226.29,236.49Z" style="fill:#263238"></path><path d="M229.7,239.08a11.36,11.36,0,0,1-.71-4.77,5.78,5.78,0,0,1,.61,2.35A5.59,5.59,0,0,1,229.7,239.08Z" style="fill:#263238"></path><path d="M232.63,236.29c-.13.05-.44-.42-.57-1.09s0-1.23.1-1.23.28.5.41,1.12S232.77,236.24,232.63,236.29Z" style="fill:#263238"></path><path d="M235.56,235.54c-.14,0-.36-.4-.49-1s-.12-1,0-1.08.36.4.49,1S235.7,235.51,235.56,235.54Z" style="fill:#263238"></path><path d="M238.41,235.34c-.14,0-.35-.47-.47-1.11s-.1-1.18,0-1.21.35.47.47,1.11S238.55,235.31,238.41,235.34Z" style="fill:#263238"></path><path d="M240.8,234.72c-.14,0-.35-.42-.46-1s-.09-1.08,0-1.11.35.42.46,1S240.94,234.7,240.8,234.72Z" style="fill:#263238"></path><path d="M243.56,237.24a6.9,6.9,0,0,1-.59-2.59,6.76,6.76,0,0,1-.07-2.65,7.13,7.13,0,0,1,.59,2.59A7,7,0,0,1,243.56,237.24Z" style="fill:#263238"></path><path d="M246.3,232.73c-.13.05-.38-.31-.54-.8s-.19-.93,0-1,.38.32.54.81S246.44,232.69,246.3,232.73Z" style="fill:#263238"></path><path d="M249.2,231.58c-.14,0-.34-.26-.46-.68s-.09-.78,0-.82.34.27.46.69S249.34,231.55,249.2,231.58Z" style="fill:#263238"></path><path d="M252,230.63c-.14,0-.35-.33-.47-.82s-.1-.91,0-.95.35.34.47.83S252.13,230.6,252,230.63Z" style="fill:#263238"></path><path d="M196.48,230.76c-.12-.07.08-.64.46-1.26s.77-1.07.89-1-.07.64-.45,1.26S196.61,230.84,196.48,230.76Z" style="fill:#263238"></path><path d="M193.57,229c-.1-.1.17-.53.6-.94s.86-.67,1-.57-.17.53-.6.94S193.67,229.11,193.57,229Z" style="fill:#263238"></path><g style="opacity:0.30000000000000004"><path d="M206.33,231.45a6.24,6.24,0,0,0-.86,1.6,15.63,15.63,0,0,0-.93,4l1.35.38s1-4.84,1.48-5.61Z"></path></g><path d="M189.92,147.57a24.4,24.4,0,0,1-1.54-8.63,9.68,9.68,0,0,1,3.81-7.6,13.35,13.35,0,0,1,6.41-1.78c2.79-.24,5.88-.22,8,1.59,1.63,1.38,2.37,3.53,2.92,5.59.72,2.68,1.24,5.56.38,8.19-1.3,3.95-5.59,6.4-9.75,6.44a14.68,14.68,0,0,1-10.25-3.8" style="fill:#FD904D"></path><g style="opacity:0.30000000000000004"><path d="M205.5,131.34a6.26,6.26,0,0,0-4.29-1.1.65.65,0,0,0-.5,1l.06.07a1.43,1.43,0,0,0,1.06.36,11.06,11.06,0,0,1,1.15,0,2.87,2.87,0,0,1,2.13,1.47,9.22,9.22,0,0,1,.92,2.51,2,2,0,0,0,.3.73.71.71,0,0,0,.68.3c.38-.07.55-.52.6-.91A4.85,4.85,0,0,0,205.5,131.34Z" style="fill:#fff"></path></g><g style="opacity:0.30000000000000004"><path d="M192.07,133.3c.24-.28.75,0,.8.35a1.49,1.49,0,0,1-.38,1,4.26,4.26,0,0,0-1,2.41c0,.89.91,1.8,1.74,1.48.65-.25.88-1,1.13-1.66a6.67,6.67,0,0,1,1.54-2.34,2.21,2.21,0,0,1,1-.64,1,1,0,0,1,1.05.38,1.41,1.41,0,0,1-.13,1.27,8,8,0,0,0-1,2.53,1.84,1.84,0,0,0,1.32,2.08,1.74,1.74,0,0,0,1.43-.6,5.89,5.89,0,0,0,.86-1.34,23.31,23.31,0,0,1,2.77-4c.34-.41.87-.84,1.35-.61s.45.83.39,1.32a16.88,16.88,0,0,1-1,4,7.8,7.8,0,0,0-.85,3.06c0,1.06.88,2.2,1.94,2.1a5.2,5.2,0,0,0,1.72-.81c.56-.3,1.39-.36,1.72.19a1.38,1.38,0,0,1,.13.8,6,6,0,0,1-2.87,4.5,8.91,8.91,0,0,1-5.33,1.18,17.87,17.87,0,0,1-5.36-1.38,10,10,0,0,1-5-3.56c-1.39-2.21-1.12-5.1-.3-7.58"></path></g><path d="M193.81,160.88s-7-8.52-7-9.72-1.6-10.82-1.6-10.82l3-6.41,4.6-1.3a1.21,1.21,0,0,1-.4,1.9,8.8,8.8,0,0,0-1.9,1.51l-1,3.3,1.3,5.91-.1-6.71,3.91-5.91s1.9-.8,2.8.5-.6,3.11-.6,3.11l-1.4,3.2s.8,7.27.9,7.19,1.8-7.79,1.8-7.79l4.61-7.51a1.66,1.66,0,0,1,1.91,1.7c0,1.9-2.31,6.31-2.31,6.31l-1.1,8.12h1.3l2.71-3.51,4.9-5.71a1.41,1.41,0,0,1,1.11,2c-.5,1.81-5,9.82-5,9.82s2.3,8.52,2,12.42l-.3,3.91Z" style="fill:#ffbe9d"></path><path d="M192.62,157.57s-8.9,0-11.89,14.66c-4.76,23.35,6.67,42,11.37,46.68,0,0,6.88,11.11,17.39,8.07s5.25-22.12,5.25-22.12l-7.46-44Z" style="fill:#ffbe9d"></path><path d="M187.73,153a3,3,0,0,1,.46.51l1.25,1.55,4.52,5.75,0,0v0a56,56,0,0,1,.88,9.76,44.35,44.35,0,0,1-.42,5.74,59.4,59.4,0,0,1-1.19,6c-1,4.26-2.24,8.24-3.18,11.9a44.39,44.39,0,0,0-1.21,5.21,15.54,15.54,0,0,0-.08,4.6,28.24,28.24,0,0,0,1.09,3.66,26.65,26.65,0,0,0,1.07,2.7,10.93,10.93,0,0,0,.92,1.58,6,6,0,0,1,.38.51s-.05,0-.13-.1a2.33,2.33,0,0,1-.33-.35,8.59,8.59,0,0,1-1-1.55,22.75,22.75,0,0,1-1.17-2.69,27.09,27.09,0,0,1-1.17-3.7c-.53-2.9.18-6.37,1.18-10s2.11-7.67,3.15-11.9c.49-2,.91-4,1.19-6a45.33,45.33,0,0,0,.43-5.68,58.55,58.55,0,0,0-.76-9.69l0,.08-4.38-5.85c-.49-.66-.87-1.2-1.17-1.61A2.68,2.68,0,0,1,187.73,153Z" style="fill:#eb996e"></path><path d="M202.5,147a3.21,3.21,0,0,1,.49-.65l1.48-1.77,5.52-6.45,0-.06h.07a1.52,1.52,0,0,1,.83.17,1.19,1.19,0,0,1,.54.69,2.69,2.69,0,0,1-.13,1.66,28.47,28.47,0,0,1-1.38,3.07c-1,2.08-2.23,4.26-3.53,6.54V150c.1.21.22.43.34.66l0,.06v.66c.61,3.26,1.15,6.82,1.69,10.5l3.65,26.22c.49,3.31.89,6,1.18,7.94.13.89.24,1.61.33,2.15a4,4,0,0,1,.08.76,4.28,4.28,0,0,1-.19-.74c-.1-.54-.25-1.25-.42-2.14-.35-1.86-.82-4.57-1.34-7.91-1.06-6.7-2.33-16-3.8-26.21-.54-3.67-1.08-7.22-1.67-10.48v0c0-.22,0-.44,0-.64l0,.11-.33-.67-.06-.12.06-.11c1.31-2.27,2.52-4.45,3.57-6.5a29.34,29.34,0,0,0,1.38-3,2.3,2.3,0,0,0,.14-1.4.87.87,0,0,0-.94-.6l.12-.07-5.66,6.35-1.55,1.7A5.46,5.46,0,0,1,202.5,147Z" style="fill:#eb996e"></path><path d="M205.11,121.58a19.85,19.85,0,0,0-3.82,1.86,6.8,6.8,0,0,0-2.67,3.21,6,6,0,0,0,.1,4,11.69,11.69,0,0,0,5.24-3.36A6,6,0,0,0,205.11,121.58Z" style="fill:#455a64"></path><path d="M193.79,124.39c0-.06.5,0,1.22.33a6.85,6.85,0,0,1,2.37,1.93,6.64,6.64,0,0,1,1.3,2.77,2.3,2.3,0,0,1,0,1.26A12.45,12.45,0,0,0,197,127,12.29,12.29,0,0,0,193.79,124.39Z" style="fill:#263238"></path><path d="M204.46,123.25c.1.11-1.44,1.54-3,3.55s-2.64,3.83-2.78,3.75a12,12,0,0,1,2.37-4.07A11.79,11.79,0,0,1,204.46,123.25Z" style="fill:#263238"></path><path d="M196.9,130.17c0,.15-1.12.22-2.37.7s-2.15,1.16-2.25,1,.69-1,2.06-1.52A3.45,3.45,0,0,1,196.9,130.17Z" style="fill:#fff"></path><path d="M246.78,235.38s-1-2.66,1.21-2.88c.94-.08,2.33-.09,3.62-.07a4.62,4.62,0,0,1,4.32,3.2l.92,2.89,3.06,3.06h3.38l5.28,11.23s-4.54,3.83-7.18,2.58-3.06-1-3.06-1-10.45,6.12-11.19,5.8-2-1.44,0-3.16,9-6.55,9-6.55l-13.29,4.95s-2.22-.52-.95-2.2,12.45-6.9,12.45-6.9l-.84-.91s-10.77,4-11.51,3.48-2.47-1.58-.49-3,11.68-5.28,11.68-5.28l-1.48-3.48-1.48-.74S247.09,236.34,246.78,235.38Z" style="fill:#ffbe9d"></path><path d="M266.66,245.66a15.45,15.45,0,0,0-1.52-2.41,15.2,15.2,0,0,0-2.28-1.72,4.34,4.34,0,0,1,3.8,4.13Z" style="fill:#eb996e"></path><path d="M258,242.47a10,10,0,0,0-2.31-1.47,10.27,10.27,0,0,0-2.71-.3c0-.06.26-.24.79-.35a4,4,0,0,1,2.1.16,4,4,0,0,1,1.73,1.18C257.91,242.11,258,242.43,258,242.47Z" style="fill:#eb996e"></path><path d="M258.11,246.5c-.08.13-.92-.37-2.06-.32s-2,.59-2.05.47.68-1,2-1S258.23,246.41,258.11,246.5Z" style="fill:#eb996e"></path><path d="M260,250.26c-.05.14-1.05-.08-2.27.1s-2.12.66-2.2.53.77-.86,2.13-1A2.89,2.89,0,0,1,260,250.26Z" style="fill:#eb996e"></path></g></svg>