<svg xmlns="http://www.w3.org/2000/svg" viewBox="0 0 500 500"><g id="freepik--background-simple--inject-75"><path d="M417.89,102l-2.21-3.63c-18.62-30.69-52.29-49.19-87.78-46.94a94.47,94.47,0,0,0-13.59,1.86c-32.27,6.91-60.35,31.32-72,62.57-6.84,18.38-8.76,39.55-21.75,54.14-16.9,19-45.6,19.58-70.84,18.79S95.78,188.63,79,207.69c-10.54,11.94-13.89,28.92-13,44.91,2.25,42.33,31.75,80.18,69.26,99s81.68,20.5,122.73,12.22C315.43,352.22,370.12,320.38,403,271.2S444.19,155,417.89,102Z" style="fill:#ebebeb"></path></g><g id="freepik--Plant--inject-75"><path d="M380.08,395.29a19.48,19.48,0,0,0-31.9,7.66l2.31,8.93c.88-3,2.76-6,5.67-7.24s6.52-.56,9.61.57,6.14,2.63,9.42,2.83,7-1.36,8-4.5C384.09,400.59,382.31,397.44,380.08,395.29Z" style="fill:#263238"></path><path d="M324.46,425.08c-4.82-4.58-4.58-12.56-2.17-18.75s7.65-11,13.51-14.1A42.81,42.81,0,0,1,373.1,391a17.68,17.68,0,0,0-14.31,8.41c-2.64,4.38-3.23,9.71-5.41,14.34a22.6,22.6,0,0,1-28.92,11.31" style="fill:#455a64"></path><path d="M322.14,397.56c-5.33-6.3-6-16.41-5.26-24.63s2.69-16.49,1.4-24.65c-.77-4.83-2.65-9.44-3.28-14.29s.27-10.33,4-13.47c4.32-3.59,11.13-2.74,15.62.63s7.1,8.69,9,14c4.18,11.62,5.71,24.51,2.28,36.38S334.43,394,322.61,397.56" style="fill:#455a64"></path><path d="M319.58,449.25a5.72,5.72,0,0,1,0-.72c0-.48,0-1.18,0-2.09.07-1.8.24-4.42.65-7.63a102.71,102.71,0,0,1,2.05-11.17,51.25,51.25,0,0,1,5.1-12.94,53.61,53.61,0,0,1,8.33-11.13,52.91,52.91,0,0,1,8.74-7.27c1.33-.92,2.62-1.62,3.73-2.27s2.13-1.09,2.94-1.48l1.92-.81a5,5,0,0,1,.68-.25,4,4,0,0,1-.64.33l-1.88.89c-.8.41-1.78.92-2.9,1.54s-2.37,1.38-3.68,2.31a54.92,54.92,0,0,0-16.86,18.36c-4.9,8.58-6.25,17.61-7.22,23.94-.44,3.19-.67,5.79-.79,7.59l-.12,2.08A3.76,3.76,0,0,1,319.58,449.25Z" style="fill:#263238"></path><path d="M266.16,379.24c2.58-3.57,9-4.6,13-2.82s7,5.31,9.62,8.84,5.21,7.24,8.87,9.69,8.77,3.34,12.41.87a10.62,10.62,0,0,0,4.22-7.3,24.07,24.07,0,0,0-.58-8.61c-.87-4.14-2.29-8.46-5.61-11.1-3.69-2.93-8.81-3.07-13.53-2.91-5.41.17-10.9.58-16,2.45s-10.26,5.93-12.41,10.89" style="fill:#455a64"></path><path d="M311.38,441.34a.58.58,0,0,1,0-.21c0-.17,0-.38,0-.64,0-.6-.05-1.41-.09-2.45-.06-2.17-.15-5.24-.26-9s-.27-8.34-.55-13.36-.65-10.55-1.41-16.3a53.33,53.33,0,0,0-1.64-8.27,43,43,0,0,0-3-7.24,41.29,41.29,0,0,0-3.81-6,39.49,39.49,0,0,0-4.17-4.58,30.71,30.71,0,0,0-7.39-5c-.49-.22-.91-.44-1.28-.59l-1-.37-.59-.24-.2-.1s.08,0,.21.05l.61.2,1,.34c.39.14.82.35,1.31.56a29.52,29.52,0,0,1,7.53,5,39.79,39.79,0,0,1,4.25,4.58,43.8,43.8,0,0,1,7,13.33,51.52,51.52,0,0,1,1.66,8.34c.77,5.78,1.13,11.31,1.39,16.34s.37,9.56.45,13.37.11,6.89.12,9v2.45c0,.26,0,.47,0,.64A1.66,1.66,0,0,1,311.38,441.34Z" style="fill:#263238"></path><path d="M314.93,445.81a28.83,28.83,0,0,1-1.08-4.24,44.62,44.62,0,0,1-.46-11.92,79.27,79.27,0,0,1,3.77-17.28c2-6.36,4.77-13.15,7.12-20.45a93.58,93.58,0,0,0,2.84-10.82,96.52,96.52,0,0,0,1.4-10.33,151.94,151.94,0,0,0,.32-17.65c-.17-5-.44-9.09-.61-11.9-.08-1.39-.14-2.47-.19-3.24,0-.35,0-.63,0-.84a1.07,1.07,0,0,1,0-.29,1.47,1.47,0,0,1,.05.28c0,.22,0,.49.08.84.06.77.16,1.85.27,3.23.22,2.81.54,6.88.75,11.91a146.58,146.58,0,0,1-.22,17.7,97.71,97.71,0,0,1-1.38,10.37,95.33,95.33,0,0,1-2.84,10.87c-2.36,7.33-5.12,14.11-7.17,20.44a80.35,80.35,0,0,0-3.83,17.19,45.84,45.84,0,0,0,.31,11.86c.24,1.38.46,2.45.66,3.16.08.34.14.62.19.82A1,1,0,0,1,314.93,445.81Z" style="fill:#263238"></path><polygon points="339.41 450.27 293.04 450.27 291.99 441.34 339.41 441.34 339.41 450.27" style="fill:#FF725E"></polygon><polygon points="298.02 449.25 303.82 476.02 329.01 476.02 334.43 449.25 298.02 449.25" style="fill:#FF725E"></polygon><path d="M339.41,450.27c0,.12-10.2.19-22.77.16s-22.76-.17-22.76-.29,10.19-.19,22.76-.16S339.41,450.15,339.41,450.27Z" style="fill:#455a64"></path><path d="M339.82,450.31c0,.12-10.43.22-23.29.22s-23.3-.1-23.3-.22,10.43-.22,23.3-.22S339.82,450.18,339.82,450.31Z" style="fill:#263238"></path></g><g id="freepik--Floor--inject-75"><path d="M442.84,475.79c0,.15-86.34.26-192.83.26s-192.85-.11-192.85-.26,86.32-.26,192.85-.26S442.84,475.65,442.84,475.79Z" style="fill:#263238"></path></g><g id="freepik--Character--inject-75"><path d="M288.26,437.26l2.39,28.8,8.46,22.22a3,3,0,0,1-1.91,3.89h0a2.93,2.93,0,0,1-2.66-.49c-4.83-3.74-22.25-17.48-22.44-19.27-.25-2.32-4.69-30.63-4.69-30.63Z" style="fill:#455a64"></path><path d="M297.2,492.17l-25.58-23,.25,2.13c.17,1.17.19,1.8,1,2.53a248.44,248.44,0,0,0,21.44,18.38c.78.61,2,.31,2.93,0Z" style="fill:#263238"></path><path d="M276.66,460.15a1.79,1.79,0,0,1,.73,2.27,1.72,1.72,0,0,1-2.25.75,1.88,1.88,0,0,1-.76-2.41,1.78,1.78,0,0,1,2.42-.52" style="fill:#fff"></path><path d="M289.31,480.31a8.81,8.81,0,0,1,2.28-2.5c1.59-1,3.22-.8,3.24-1s-.37-.26-1.05-.29a4.74,4.74,0,0,0-4.28,2.7C289.23,479.87,289.23,480.3,289.31,480.31Z" style="fill:#263238"></path><path d="M291.76,483.94c.15.11,1-.92,2.41-1.5a22.25,22.25,0,0,1,2.77-.66c.07-.16-1.38-.62-3,.07S291.6,483.88,291.76,483.94Z" style="fill:#263238"></path><path d="M285,475.79c.15.12,1.41-1.48,3.57-2.58s4.17-1.25,4.16-1.45-2.15-.33-4.45.89S284.83,475.72,285,475.79Z" style="fill:#263238"></path><path d="M283.51,467.09c.1.17,1.62-.66,3.67-1s3.75,0,3.79-.15-1.67-.82-3.88-.48S283.41,467,283.51,467.09Z" style="fill:#263238"></path><path d="M282.6,458.66c.1.16,1.6-1,3.79-1.1s3.83.72,3.91.55-.31-.39-1-.7a6.28,6.28,0,0,0-2.94-.49,6.43,6.43,0,0,0-2.85.9C282.85,458.23,282.55,458.6,282.6,458.66Z" style="fill:#263238"></path><path d="M286.17,456a2.42,2.42,0,0,0-.08-1.09,7.45,7.45,0,0,0-1.16-2.76,3.38,3.38,0,0,0-1.61-1.44,1.17,1.17,0,0,0-1.3.4,1.94,1.94,0,0,0-.32,1.35,4.19,4.19,0,0,0,4.06,3.46,4.85,4.85,0,0,0,4.47-3,1.72,1.72,0,0,0-.07-1.4,1.15,1.15,0,0,0-1.28-.48,4,4,0,0,0-1.79,1.18,8.41,8.41,0,0,0-1.72,2.44,2.64,2.64,0,0,0-.34,1,13.43,13.43,0,0,1,2.37-3.15,3.9,3.9,0,0,1,1.58-1,.62.62,0,0,1,.7.26,1.09,1.09,0,0,1,0,.92,4.32,4.32,0,0,1-3.9,2.59,3.64,3.64,0,0,1-3.49-2.89,1.45,1.45,0,0,1,.18-.95.65.65,0,0,1,.72-.24,3.08,3.08,0,0,1,1.38,1.2A11,11,0,0,1,286.17,456Z" style="fill:#263238"></path><path d="M220.08,438.75l1.06,24.38s-24.42,9.27-24.66,13.8l47.34-.37-.1-38.06Z" style="fill:#455a64"></path><path d="M235.77,461a1.91,1.91,0,0,1,1.35,2.19,1.85,1.85,0,0,1-2.16,1.36,2,2,0,0,1-1.43-2.33,1.93,1.93,0,0,1,2.41-1.17" style="fill:#e0e0e0"></path><path d="M243.82,476.56l-.16-3.84-45.33,1.79s-2.1.94-1.85,2.42Z" style="fill:#263238"></path><path d="M220.37,462.9c0,.23,1.17.32,2.31,1.06s1.76,1.7,2,1.61-.14-1.43-1.54-2.29S220.32,462.68,220.37,462.9Z" style="fill:#263238"></path><path d="M215.42,465c0,.22,1,.61,1.75,1.58s1,2,1.26,2,.36-1.32-.65-2.51S215.43,464.77,215.42,465Z" style="fill:#263238"></path><path d="M212.65,471c.21,0,.52-1.11-.08-2.38s-1.69-1.75-1.79-1.56.58.87,1.06,1.91S212.42,470.93,212.65,471Z" style="fill:#263238"></path><path d="M220.75,457.31c.09.21,1.15-.11,2.46,0s2.33.49,2.45.29-.87-1-2.41-1.09S220.63,457.13,220.75,457.31Z" style="fill:#263238"></path><path d="M211.64,257.49C211.66,259,217,459,217,459l27.24.26,8.09-170.64s6.93,91.72,6.93,93.7,6.42,77.92,6.42,77.92L292,460,290.72,278l-3.31-27.07Z" style="fill:#263238"></path><path d="M255.38,282.13a5.58,5.58,0,0,1-1.19.52c-.78.3-1.91.72-3.31,1.21l-.26.1,0-.29c-.16-2.47-.35-5.77-.52-9.38-.19-3.92-.32-7.47-.39-10,0-1.29-.05-2.33-.05-3.05a4.14,4.14,0,0,1,.06-1.12,4.44,4.44,0,0,1,.16,1.11c.07.72.15,1.75.24,3,.17,2.56.37,6.11.56,10,.17,3.61.3,6.92.37,9.39l-.28-.2c1.41-.44,2.56-.8,3.36-1A5.54,5.54,0,0,1,255.38,282.13Z" style="fill:#455a64"></path><path d="M253.16,260.8s.09-.16.38-.27a1.76,1.76,0,0,1,1.3.12,1.73,1.73,0,0,1,1,1.69,2,2,0,0,1-1.56,1.81,2.09,2.09,0,0,1-2.16-1,2,2,0,0,1,1-2.79c.29-.11.46-.09.47-.06s-.66.23-1.07,1.1a1.51,1.51,0,0,0,.07,1.48,1.6,1.6,0,0,0,1.59.73,1.55,1.55,0,0,0,1.14-1.29,1.3,1.3,0,0,0-.65-1.28A2.23,2.23,0,0,0,253.16,260.8Z" style="fill:#455a64"></path><path d="M266.59,262.91c-.16,0-.38-.88-.49-2s-.08-2,.08-2,.38.87.49,2S266.75,262.89,266.59,262.91Z" style="fill:#455a64"></path><path d="M268.62,262.7c-.16,0-.29-.95-.3-2.11s.12-2.12.28-2.12.29.94.3,2.11S268.78,262.7,268.62,262.7Z" style="fill:#455a64"></path><path d="M233.34,264.11a5.17,5.17,0,0,1-.55-2.37,5.31,5.31,0,0,1,0-2.45,10.4,10.4,0,0,1,.53,4.82Z" style="fill:#455a64"></path><path d="M235.8,264.31a5.51,5.51,0,0,1-.2-5,13.68,13.68,0,0,1,.06,2.52A13.17,13.17,0,0,1,235.8,264.31Z" style="fill:#455a64"></path><path d="M226.54,261.57a3,3,0,0,1-.09.91,19.72,19.72,0,0,1-.59,2.4A26,26,0,0,1,216.52,278a18.7,18.7,0,0,1-2.08,1.34,3.25,3.25,0,0,1-.82.39c-.05-.08,1.06-.74,2.67-2a28.84,28.84,0,0,0,9.22-13C226.2,262.82,226.45,261.55,226.54,261.57Z" style="fill:#455a64"></path><path d="M289.83,275.39a2.84,2.84,0,0,1-.89.15,13,13,0,0,1-2.45-.05,15.58,15.58,0,0,1-7.5-2.92,15.41,15.41,0,0,1-5-6.31,12.84,12.84,0,0,1-.77-2.32,2.87,2.87,0,0,1-.12-.9c.09,0,.34,1.24,1.22,3.07a16,16,0,0,0,12.21,9C288.55,275.43,289.82,275.3,289.83,275.39Z" style="fill:#455a64"></path><path d="M242.14,379.24c0,.13-4.88-1-10.83-2.63s-10.74-3-10.7-3.12,4.89,1,10.84,2.62S242.18,379.1,242.14,379.24Z" style="fill:#455a64"></path><path d="M289.3,371.77c.07.13-4.15,2.6-9.43,5.52s-9.61,5.18-9.68,5,4.15-2.59,9.43-5.51S289.23,371.65,289.3,371.77Z" style="fill:#455a64"></path><polygon points="227.4 133.87 240.05 128.91 263.35 127.59 274.3 131.75 259.29 140.09 246.35 139.61 227.4 133.87" style="fill:#a36e6a"></polygon><path d="M263.4,101.44A83.47,83.47,0,0,0,267,87.57a29.16,29.16,0,0,0-1.13-14.16c-.25-.68-2.41-5.24-3.13-5.17-.51.05.81,4.31.55,4.76-2.49,4.27-3.17,9.41-2.78,14.34a64.77,64.77,0,0,0,2.87,14.1" style="fill:#263238"></path><path d="M236.45,130.32c0-3.38.09-8.43.07-8.43s-11.6-1.17-12.35-12.66c-.36-5.55-.18-17,.1-27.43A21.47,21.47,0,0,1,244.58,61l1.11-.05c12,.06,18.65,10.29,18.25,22.28l-.62,46.65-7.58,5c-6.49,7.73-19.26,5.53-19.29-4.56Z" style="fill:#a36e6a"></path><path d="M236.45,121.89a27.8,27.8,0,0,0,14.73-5.22s-3.2,8.56-14.73,8.13Z" style="fill:#7a5554"></path><path d="M229.22,90.24a1.66,1.66,0,0,0,1.68,1.57,1.58,1.58,0,0,0,1.61-1.57,1.66,1.66,0,0,0-1.67-1.58A1.59,1.59,0,0,0,229.22,90.24Z" style="fill:#263238"></path><path d="M226.92,86.43c.21.2,1.41-.78,3.18-.87s3.1.72,3.28.5-.13-.48-.72-.86a4.48,4.48,0,0,0-2.65-.66,4.31,4.31,0,0,0-2.51,1C227,85.94,226.81,86.34,226.92,86.43Z" style="fill:#263238"></path><path d="M245.7,89.85a1.63,1.63,0,0,0,1.67,1.57A1.57,1.57,0,0,0,249,89.85a1.64,1.64,0,0,0-1.67-1.57A1.56,1.56,0,0,0,245.7,89.85Z" style="fill:#263238"></path><path d="M244.26,86.23c.22.2,1.41-.78,3.18-.87s3.11.72,3.29.5-.14-.48-.73-.86a4.49,4.49,0,0,0-2.64-.67,4.34,4.34,0,0,0-2.52,1C244.32,85.74,244.16,86.14,244.26,86.23Z" style="fill:#263238"></path><path d="M238.64,100.14a11.85,11.85,0,0,0-2.89-.37c-.46,0-.89-.08-1-.39A2.32,2.32,0,0,1,235,98l1.15-3.51c1.6-5,2.72-9.08,2.52-9.14s-1.65,3.93-3.25,8.92c-.38,1.23-.75,2.4-1.09,3.52a2.55,2.55,0,0,0-.14,1.78,1.1,1.1,0,0,0,.77.62,2.78,2.78,0,0,0,.78.07A11.57,11.57,0,0,0,238.64,100.14Z" style="fill:#263238"></path><path d="M243.53,80.28c.2.47,1.95.15,4,.3s3.8.62,4.05.18c.11-.22-.2-.65-.9-1.08a7,7,0,0,0-6.16-.37C243.8,79.66,243.44,80.06,243.53,80.28Z" style="fill:#263238"></path><path d="M227.32,80.45c.32.4,1.52-.06,3-.12s2.71.18,3-.24c.12-.21-.08-.61-.64-1a4.16,4.16,0,0,0-2.45-.59,4.26,4.26,0,0,0-2.37.88C227.33,79.84,227.17,80.26,227.32,80.45Z" style="fill:#263238"></path><path d="M263.39,91.75c.19-.1,7.77-2.76,7.94,5.12s-7.77,6.41-7.79,6.19S263.39,91.75,263.39,91.75Z" style="fill:#a36e6a"></path><path d="M265.88,100s.14.1.38.2a1.36,1.36,0,0,0,1,0c.83-.32,1.5-1.66,1.51-3.08a4.55,4.55,0,0,0-.43-2,1.59,1.59,0,0,0-1.05-1,.7.7,0,0,0-.8.4c-.1.22-.05.37-.09.39s-.17-.13-.12-.46a.93.93,0,0,1,.3-.5,1.06,1.06,0,0,1,.76-.21A1.91,1.91,0,0,1,268.81,95a4.65,4.65,0,0,1,.53,2.18c0,1.59-.8,3.09-1.93,3.45a1.49,1.49,0,0,1-1.26-.19C265.9,100.21,265.85,100,265.88,100Z" style="fill:#7a5554"></path><path d="M229.14,68.68c-1.28-.68,2.49-4.86,5.61-6.32,4.71-2.2,11.92-3.61,16.3-2.43,5.27,1.43,9.67,4,12.36,8.74a30.9,30.9,0,0,1,3.67,15.77A9.37,9.37,0,0,1,266,89.26c-1.08,1.76-3.17,2.88-3,5.28a3.31,3.31,0,0,1-.79,2.41c-1.42,1.55-3.2.14-4-1.3-1.77-3.06-2-6.74-2.2-10.27a23.26,23.26,0,0,1,.4-7.5c.37-1.32,1-2.56,1.27-3.9a4.71,4.71,0,0,0-.6-3.92,4.94,4.94,0,0,0-.65-.64A8.19,8.19,0,0,0,248.21,68c-4.41,1.62-12,4.06-14,2.57-2.87-2.13-3.57-3.53-3.57-3.53Z" style="fill:#263238"></path><path d="M236.47,105.71c-.05.13.29.41,1,.56a4.69,4.69,0,0,0,4.69-1.85c.38-.57.44-1,.31-1.06s-1.16,1-2.79,1.66S236.56,105.42,236.47,105.71Z" style="fill:#263238"></path><path d="M287.8,183s8.81,28.14,11.72,30.08,12.29,10.84,31.54,8.09l6.63-.32,1.78-12.46s-8-1.62-10.35-2.26c-3.12-.86-11.54-4.25-16.95-9.61,0,0-4.9-23.07-6-25.17l-17.83,5.42Z" style="fill:#a36e6a"></path><path d="M328.38,212.05s2.63-5.56,6.9-7.3,9.83-1.27,11.89-2.46,7.84-2.37,8.39-.39-3.09,3.31-6.81,4.54-5.23,1.79-4.91,3.38,4.91,4.75,6.26,5.15,5.5.94,5.52,2.84-1.25,1.67-3.39,1.67a49.43,49.43,0,0,1-6.57-.87s-1.11.26-.55.88,3.09,2.92,1.58,4.51a4.45,4.45,0,0,1-3.72,1.19l-3-.56s-1.67,2.93-3,1.74-.4.29-.4.29-1.5,2.64-3.09,2.49-7.33-3.43-7.33-3.43l-3.44-4.34Z" style="fill:#a36e6a"></path><path d="M342.46,222.67c-.06,0-.45-.47-1.26-1.19A5.46,5.46,0,0,1,340,220a2.71,2.71,0,0,1-.33-1.16,1.91,1.91,0,0,1,.4-1.3,2.33,2.33,0,0,1,2.37-.7,3.69,3.69,0,0,1,1.7,1,4,4,0,0,1,1,1.46c-.07.06-.48-.49-1.26-1.2a3.65,3.65,0,0,0-1.55-.83,1.87,1.87,0,0,0-1.85.56,1.82,1.82,0,0,0-.05,1.92,5.83,5.83,0,0,0,1.08,1.46C342.21,222,342.54,222.64,342.46,222.67Z" style="fill:#7a5554"></path><path d="M336.12,224.33a4.47,4.47,0,0,1-.69-.89c-.41-.6-1-1.47-1.66-2.58a26.42,26.42,0,0,1-2-4.09,8.64,8.64,0,0,1-.67-2.68,2,2,0,0,1,.62-1.46,1.72,1.72,0,0,1,1.63-.27,4,4,0,0,1,2.07,2.16l1.32,2.33,2.21,4a7.65,7.65,0,0,1,1.18,2.85,1.89,1.89,0,0,1-.08.85c-.06.19-.12.27-.14.26a3.3,3.3,0,0,0,0-1.08,8.54,8.54,0,0,0-1.3-2.7l-2.31-3.9L335,214.77c-.45-.79-.94-1.66-1.78-1.91A1.18,1.18,0,0,0,332,213a1.48,1.48,0,0,0-.45,1.07,8.4,8.4,0,0,0,.61,2.5,30.46,30.46,0,0,0,1.89,4.08C335.34,222.93,336.19,224.28,336.12,224.33Z" style="fill:#7a5554"></path><path d="M331.21,226.65a4.88,4.88,0,0,1-.57-.91c-.34-.6-.81-1.48-1.38-2.57s-1.25-2.38-2-3.84a5.47,5.47,0,0,1-.66-2.57,2.48,2.48,0,0,1,.49-1.4,1.47,1.47,0,0,1,1.47-.6,2.27,2.27,0,0,1,1.24.92c.28.38.53.74.78,1.11.51.73,1,1.44,1.42,2.13.89,1.37,1.65,2.62,2.28,3.68s1.13,1.92,1.46,2.52a4.5,4.5,0,0,1,.47,1,4.38,4.38,0,0,1-.65-.86L334,222.79l-2.37-3.61-1.44-2.1c-.52-.68-1-1.62-1.71-1.81a.94.94,0,0,0-.95.41,1.92,1.92,0,0,0-.39,1.11,5.1,5.1,0,0,0,.59,2.33l1.88,3.89c.53,1.11,1,2,1.23,2.64A4.44,4.44,0,0,1,331.21,226.65Z" style="fill:#7a5554"></path><path d="M348.3,202.72c.15,0,.11.66.41,1.33s.78,1.09.7,1.22-.81-.15-1.18-1S348.17,202.66,348.3,202.72Z" style="fill:#7a5554"></path><path d="M311.18,196.88c0,.08-.7.17-1.71.65a9.24,9.24,0,0,0-3.3,2.74,16.65,16.65,0,0,0-2.08,3.84,8,8,0,0,1-.75,1.69,5.8,5.8,0,0,1,.4-1.82,13.49,13.49,0,0,1,2-4,8.36,8.36,0,0,1,3.57-2.76A3.34,3.34,0,0,1,311.18,196.88Z" style="fill:#7a5554"></path><path d="M198.8,181.59l-.49,22.73s-8.7,4.63-10.94,4.91-15-1.33-15-1.33l.66,13.82s20.21,4.91,26.53,5.05,9.1-.14,10.23-1.54,5.31-3.2,6.38-9.53-2.11-34.11-2.11-34.11Z" style="fill:#a36e6a"></path><path d="M209.61,215a18.2,18.2,0,0,0-9.93-10.25,5.84,5.84,0,0,1,2.08.67,14.8,14.8,0,0,1,7.24,7.47A5.75,5.75,0,0,1,209.61,215Z" style="fill:#7a5554"></path><path d="M174,209.23s-2.63-5.56-6.9-7.3-9.83-1.27-11.89-2.46-7.84-2.37-8.39-.39,3.09,3.31,6.81,4.54,5.23,1.79,4.91,3.38-4.91,4.75-6.26,5.15-5.49.94-5.52,2.85,1.25,1.66,3.39,1.66a49.43,49.43,0,0,0,6.57-.87s1.11.26.55.88-3.08,2.92-1.58,4.51a4.46,4.46,0,0,0,3.72,1.19l3-.56s1.67,2.93,3,1.74.4.29.4.29,1.5,2.65,3.09,2.49,7.33-3.43,7.33-3.43l3.44-4.34Z" style="fill:#a36e6a"></path><path d="M159.89,219.85c-.08,0,.25-.66,1-1.45a5.83,5.83,0,0,0,1.08-1.46,1.8,1.8,0,0,0-.05-1.92,1.87,1.87,0,0,0-1.85-.56,3.56,3.56,0,0,0-1.55.84c-.78.7-1.19,1.25-1.26,1.19a4,4,0,0,1,1-1.46,3.69,3.69,0,0,1,1.7-1,2.33,2.33,0,0,1,2.37.7,1.91,1.91,0,0,1,.4,1.3,2.71,2.71,0,0,1-.33,1.16,5.46,5.46,0,0,1-1.25,1.51C160.34,219.38,160,219.88,159.89,219.85Z" style="fill:#7a5554"></path><path d="M166.23,221.51c-.07,0,.78-1.4,2-3.65a30.46,30.46,0,0,0,1.89-4.08,8.1,8.1,0,0,0,.61-2.5,1.48,1.48,0,0,0-.45-1.07,1.18,1.18,0,0,0-1.13-.17c-.84.25-1.33,1.12-1.78,1.91l-1.35,2.32-2.31,3.9a8.54,8.54,0,0,0-1.3,2.7,3.3,3.3,0,0,0,0,1.08s-.08-.07-.14-.26a1.89,1.89,0,0,1-.08-.85,7.83,7.83,0,0,1,1.18-2.85l2.21-4L167,211.7a4,4,0,0,1,2.07-2.16,1.72,1.72,0,0,1,1.63.27,2,2,0,0,1,.62,1.46,8.37,8.37,0,0,1-.67,2.68,26,26,0,0,1-2,4.09c-.66,1.11-1.25,2-1.66,2.58A4.47,4.47,0,0,1,166.23,221.51Z" style="fill:#7a5554"></path><path d="M171.14,223.83a4.44,4.44,0,0,1,.39-1c.28-.63.7-1.53,1.23-2.64l1.89-3.89a5.09,5.09,0,0,0,.58-2.33,1.92,1.92,0,0,0-.39-1.11.94.94,0,0,0-1-.41c-.73.19-1.19,1.13-1.71,1.81l-1.44,2.1L168.37,220l-1.59,2.44a4.38,4.38,0,0,1-.65.86,4.5,4.5,0,0,1,.47-1c.34-.6.83-1.46,1.46-2.52s1.39-2.31,2.28-3.68c.44-.68.91-1.4,1.42-2.13.25-.37.5-.73.78-1.11a2.27,2.27,0,0,1,1.24-.92,1.49,1.49,0,0,1,1.47.6,2.48,2.48,0,0,1,.49,1.4,5.47,5.47,0,0,1-.66,2.57c-.73,1.46-1.42,2.75-2,3.84s-1,2-1.38,2.57A4.88,4.88,0,0,1,171.14,223.83Z" style="fill:#7a5554"></path><path d="M154.05,199.9c.13-.06.44.69.07,1.54s-1.14,1.14-1.18,1,.41-.53.7-1.21S153.9,199.93,154.05,199.9Z" style="fill:#7a5554"></path><path d="M176.93,221.66a9.84,9.84,0,0,0,1.14-1.85,6.25,6.25,0,0,0,.42-2.27,7.52,7.52,0,0,0-.58-2.77,15.36,15.36,0,0,0-2.94-4.34,11.41,11.41,0,0,1-1.44-1.69,8.2,8.2,0,0,1,1.71,1.44,13.3,13.3,0,0,1,3.15,4.4,7.44,7.44,0,0,1,.58,3,5.86,5.86,0,0,1-.57,2.41A3.33,3.33,0,0,1,176.93,221.66Z" style="fill:#7a5554"></path><path d="M310.47,170s-11.57-33.5-15.9-35.18c0,0-18.94-4.24-28.34-7.26,0,0-6.44,6.71-18.69,6.53-12-.18-14.47-2.88-14.47-2.88l-16.74,6.42s-11.9,4.27-14,9.53-5.65,34.4-5.65,34.4h17.35l-.32,51.72-3.25,26c1.2.21,78.94-.82,78.94-.82l-.32-67.71.32-14.34Z" style="fill:#FF725E"></path><path d="M205.33,154.87a1.62,1.62,0,0,1,.13.47c.09.36.19.82.32,1.4a45.51,45.51,0,0,0,1.6,5.12c.8,2.15,1.93,4.68,3.31,7.52s2.49,6.22,3.72,9.83l0,0v0c0,4.32-.06,9.05-.09,14-.12,11-.22,21-.3,28.31-.06,3.58-.11,6.5-.15,8.58,0,1,0,1.75-.07,2.33a7.37,7.37,0,0,1-.05.81,3.93,3.93,0,0,1,0-.81c0-.59,0-1.36,0-2.34,0-2.08,0-5,0-8.58,0-7.29.09-17.27.15-28.3.05-4.94.09-9.67.13-14v.08c-1.21-3.6-2.37-7-3.64-9.82s-2.45-5.41-3.21-7.59a37.85,37.85,0,0,1-1.47-5.19c-.12-.61-.21-1.09-.25-1.41A3.55,3.55,0,0,1,205.33,154.87Z" style="fill:#263238"></path><path d="M290.85,146.42a9.13,9.13,0,0,1,0,1.54c0,1.09-.09,2.5-.15,4.19-.15,3.63-.34,8.47-.55,13.82s-.46,10.19-.62,13.82c-.1,1.7-.18,3.1-.25,4.19a9.08,9.08,0,0,1-.15,1.53,8.46,8.46,0,0,1-.05-1.54c0-1.08.05-2.49.08-4.19.09-3.54.25-8.43.47-13.83s.47-10.28.7-13.82c.11-1.76.22-3.19.32-4.18A7.55,7.55,0,0,1,290.85,146.42Z" style="fill:#263238"></path><g style="opacity:0.30000000000000004"><path d="M205.82,157.49A30.18,30.18,0,0,0,213.7,179C212.07,171.54,208,164.61,205.82,157.49Z"></path></g><path d="M216.67,156.82a14.4,14.4,0,0,1,1.09-3.75,15.12,15.12,0,0,1,1.58-3.58,14.52,14.52,0,0,1-1.09,3.76A15.16,15.16,0,0,1,216.67,156.82Z" style="fill:#fff"></path><path d="M235.28,145.26a20.91,20.91,0,0,1-3.75-2.82,21.29,21.29,0,0,1-3.41-3.22,21.32,21.32,0,0,1,3.75,2.82A21.83,21.83,0,0,1,235.28,145.26Z" style="fill:#fff"></path><path d="M240.07,157.61a14.57,14.57,0,0,1-4.43,1.38,14.41,14.41,0,0,1-4.62.41,36.23,36.23,0,0,1,4.52-.93A38.77,38.77,0,0,1,240.07,157.61Z" style="fill:#fff"></path><path d="M222.39,183.23a10.72,10.72,0,0,1,.08-3.37,11.47,11.47,0,0,1,.61-3.31,22.09,22.09,0,0,1-.69,6.68Z" style="fill:#fff"></path><path d="M263,160a10.62,10.62,0,0,1-3.1,1.21,10.93,10.93,0,0,1-3.26.7A21.76,21.76,0,0,1,263,160Z" style="fill:#fff"></path><path d="M257.41,143.63a12.9,12.9,0,0,1,3.34-6.36,24,24,0,0,1-1.66,3.18A22.53,22.53,0,0,1,257.41,143.63Z" style="fill:#fff"></path><path d="M279.36,145.7a13.75,13.75,0,0,1-2.12-3.95,14,14,0,0,1-1.22-4.32,32.62,32.62,0,0,1,1.7,4.12A33.64,33.64,0,0,1,279.36,145.7Z" style="fill:#fff"></path><path d="M279.84,172.89a8.82,8.82,0,0,1,.88-3.6,9,9,0,0,1,1.82-3.23,25.05,25.05,0,0,1-1.34,3.42A26.59,26.59,0,0,1,279.84,172.89Z" style="fill:#fff"></path><path d="M274.41,196.92a15.67,15.67,0,0,1-2.44-3.2,15.29,15.29,0,0,1-2-3.48,15.77,15.77,0,0,1,2.44,3.19A15.94,15.94,0,0,1,274.41,196.92Z" style="fill:#fff"></path><path d="M300.68,162.88a8.18,8.18,0,0,1-2.44,1.63,8.58,8.58,0,0,1-2.68,1.18,8.21,8.21,0,0,1,2.43-1.63A8.48,8.48,0,0,1,300.68,162.88Z" style="fill:#fff"></path><path d="M297.58,151.89a16.16,16.16,0,0,1-1-4,16.23,16.23,0,0,1-.51-4.1,17.27,17.27,0,0,1,1,4A16.79,16.79,0,0,1,297.58,151.89Z" style="fill:#fff"></path><path d="M205.06,177.68a16.64,16.64,0,0,1-1.56-3.81,16.81,16.81,0,0,1-1.06-4,15.7,15.7,0,0,1,1.56,3.8A16.7,16.7,0,0,1,205.06,177.68Z" style="fill:#fff"></path><path d="M203.14,150.62a25.41,25.41,0,0,1-.49,5.06,25.17,25.17,0,0,1-1,5,25.41,25.41,0,0,1,.49-5.06A25.17,25.17,0,0,1,203.14,150.62Z" style="fill:#fff"></path><path d="M235.63,208.68a22.06,22.06,0,0,1-7.32-5.56,35.6,35.6,0,0,1,3.68,2.75A36.12,36.12,0,0,1,235.63,208.68Z" style="fill:#fff"></path><path d="M224.42,245.69a26.2,26.2,0,0,1,2.13-4.78,26.74,26.74,0,0,1,2.59-4.54,26.2,26.2,0,0,1-2.13,4.78A26.74,26.74,0,0,1,224.42,245.69Z" style="fill:#fff"></path><path d="M251.86,246.16a19,19,0,0,1-5-2.76,18.21,18.21,0,0,1-4.3-3.79c.1-.11,2,1.57,4.6,3.36S251.93,246,251.86,246.16Z" style="fill:#fff"></path><path d="M278.25,240a19.27,19.27,0,0,1-7.48,6.35c-.08-.13,1.76-1.33,3.82-3.08S278.14,239.91,278.25,240Z" style="fill:#fff"></path><path d="M268.52,226.8a7.65,7.65,0,0,1,.33-2.12c.28-1.29.74-3.05,1.36-5s1.29-3.62,1.82-4.83a8,8,0,0,1,1-1.91c.14.06-1.07,3.09-2.3,6.9S268.67,226.83,268.52,226.8Z" style="fill:#fff"></path><path d="M257.47,218.82a30.74,30.74,0,0,1-3.4-4.49,30.48,30.48,0,0,1-3-4.78,61.11,61.11,0,0,1,6.37,9.27Z" style="fill:#fff"></path><g style="opacity:0.30000000000000004"><path d="M241.07,228.91c3.75-.32,7.13-2.54,9.63-5.36a45.62,45.62,0,0,0,6.46-9.36,37,37,0,0,0,3.8-14.72C256.28,212,249.43,221.91,241.07,228.91Z"></path></g><path d="M262.43,194a1.32,1.32,0,0,1-.06.46c-.08.36-.18.79-.29,1.31s-.3,1.25-.54,2-.49,1.69-.85,2.67a63.12,63.12,0,0,1-2.76,6.73,71.55,71.55,0,0,1-4.42,7.76,68.49,68.49,0,0,1-5.44,7.07,59,59,0,0,1-5.17,5.14c-.77.7-1.52,1.27-2.16,1.78s-1.21.94-1.69,1.27L238,231a2.19,2.19,0,0,1-.41.23s.11-.12.34-.32l1.05-.83c.46-.34,1-.78,1.63-1.32s1.35-1.12,2.09-1.84a64.67,64.67,0,0,0,5.06-5.17,76.27,76.27,0,0,0,5.37-7,74.11,74.11,0,0,0,4.41-7.68,66.47,66.47,0,0,0,2.86-6.65c.38-1,.65-1.85.91-2.63s.47-1.45.62-2,.28-.92.38-1.27A2.78,2.78,0,0,1,262.43,194Z" style="fill:#263238"></path><path d="M234.67,174c0,1.74-1.3,2.82-3.39,2.82h-1.57V179H227.9v-7.81h3.38C233.37,171.17,234.67,172.26,234.67,174Zm-1.83,0c0-.86-.56-1.36-1.66-1.36h-1.47v2.71h1.47C232.28,175.36,232.84,174.85,232.84,174Z" style="fill:#fff"></path><path d="M241.67,176.47h-4.54a1.6,1.6,0,0,0,1.72,1.21,2,2,0,0,0,1.5-.58l.93,1a3.14,3.14,0,0,1-2.48,1,3.11,3.11,0,0,1-3.42-3.09,3.06,3.06,0,0,1,3.2-3.09A3,3,0,0,1,241.7,176C241.7,176.14,241.68,176.33,241.67,176.47Zm-4.56-1h2.95a1.5,1.5,0,0,0-2.95,0Z" style="fill:#fff"></path><path d="M246.59,172.89v1.61l-.39,0a1.47,1.47,0,0,0-1.59,1.67V179h-1.74v-6h1.66v.79A2.42,2.42,0,0,1,246.59,172.89Z" style="fill:#fff"></path><path d="M247.07,178.42l.58-1.25a4.08,4.08,0,0,0,2.09.58c.8,0,1.1-.21,1.1-.54,0-1-3.62,0-3.62-2.38,0-1.14,1-1.94,2.78-1.94a4.82,4.82,0,0,1,2.3.53l-.58,1.23a3.47,3.47,0,0,0-1.72-.44c-.79,0-1.12.24-1.12.56,0,1,3.63,0,3.63,2.39,0,1.12-1,1.91-2.84,1.91A5.16,5.16,0,0,1,247.07,178.42Z" style="fill:#fff"></path><path d="M253.13,176a3.3,3.3,0,1,1,3.3,3.09A3.09,3.09,0,0,1,253.13,176Zm4.83,0a1.54,1.54,0,1,0-1.53,1.66A1.51,1.51,0,0,0,258,176Z" style="fill:#fff"></path><path d="M267,175.55V179h-1.74v-3.17c0-1-.44-1.41-1.21-1.41s-1.44.51-1.44,1.62v3h-1.74v-6h1.66v.7a2.63,2.63,0,0,1,2-.79A2.36,2.36,0,0,1,267,175.55Z" style="fill:#fff"></path><path d="M273.91,175.56V179h-1.63v-.75a2,2,0,0,1-1.83.84c-1.41,0-2.24-.78-2.24-1.82s.75-1.79,2.57-1.79h1.39c0-.75-.45-1.19-1.39-1.19a2.9,2.9,0,0,0-1.72.56l-.63-1.21a4.61,4.61,0,0,1,2.59-.73C272.85,172.89,273.91,173.74,273.91,175.56Zm-1.74,1.53v-.62H271c-.81,0-1.07.3-1.07.7s.37.73,1,.73A1.28,1.28,0,0,0,272.17,177.09Z" style="fill:#fff"></path><path d="M275.48,170.71h1.74V179h-1.74Z" style="fill:#fff"></path><path d="M239.81,184.56h3.41c2.53,0,4.26,1.57,4.26,3.91s-1.73,3.9-4.26,3.9h-3.41Zm3.34,6.59a2.69,2.69,0,1,0,0-5.36h-1.89v5.36Z" style="fill:#fff"></path><path d="M253.88,188.88v3.49h-1.32v-.72a2.11,2.11,0,0,1-1.87.8c-1.36,0-2.22-.75-2.22-1.78s.67-1.78,2.47-1.78h1.54v-.09c0-.81-.49-1.29-1.48-1.29a3,3,0,0,0-1.81.59l-.54-1a4.18,4.18,0,0,1,2.52-.74C252.88,186.35,253.88,187.16,253.88,188.88Zm-1.4,1.63v-.69H251c-.94,0-1.2.36-1.2.79s.42.83,1.14.83A1.52,1.52,0,0,0,252.48,190.51Z" style="fill:#fff"></path><path d="M259.25,192.05a2.19,2.19,0,0,1-1.34.4,1.83,1.83,0,0,1-2.05-2v-2.86h-1v-1.12h1V185.1h1.39v1.36h1.59v1.12h-1.59v2.83c0,.58.29.89.82.89a1.34,1.34,0,0,0,.79-.24Z" style="fill:#fff"></path><path d="M265.38,188.88v3.49h-1.31v-.72a2.14,2.14,0,0,1-1.88.8c-1.36,0-2.22-.75-2.22-1.78s.67-1.78,2.48-1.78H264v-.09c0-.81-.49-1.29-1.49-1.29a2.92,2.92,0,0,0-1.8.59l-.55-1a4.2,4.2,0,0,1,2.52-.74C264.39,186.35,265.38,187.16,265.38,188.88ZM264,190.51v-.69h-1.44c-.95,0-1.21.36-1.21.79s.43.83,1.14.83A1.54,1.54,0,0,0,264,190.51Z" style="fill:#fff"></path><path d="M260.11,171.42a3.41,3.41,0,0,1-.09.74c-.09.53-.21,1.22-.37,2.09s-.37,2-.69,3.3-.63,2.74-1.12,4.31c-.24.8-.48,1.63-.74,2.49s-.59,1.75-.91,2.67c-.6,1.85-1.41,3.76-2.23,5.79a106.55,106.55,0,0,1-6.5,12.64,105.32,105.32,0,0,1-8.3,11.55c-1.44,1.65-2.78,3.25-4.15,4.63-.68.69-1.31,1.39-2,2l-1.88,1.78c-1.18,1.16-2.34,2.1-3.33,3s-1.88,1.57-2.62,2.12-1.27,1-1.7,1.28a3.48,3.48,0,0,1-.61.42,5.31,5.31,0,0,1,.55-.5l1.63-1.35c.72-.58,1.59-1.3,2.56-2.19s2.11-1.83,3.27-3l1.85-1.81c.64-.63,1.26-1.33,1.93-2,1.35-1.39,2.67-3,4.09-4.63a100,100,0,0,0,14.73-24.08c.83-2,1.65-3.91,2.27-5.75.32-.91.66-1.78.93-2.64s.52-1.68.76-2.47c.52-1.56.85-3,1.19-4.28s.6-2.36.78-3.27.35-1.55.47-2.07A6.1,6.1,0,0,1,260.11,171.42Z" style="fill:#263238"></path></g><g id="freepik--health-information--inject-75"><circle cx="116" cy="83.98" r="42.07" transform="translate(7.21 177.11) rotate(-76.47)" style="fill:#fafafa"></circle><path d="M158.07,84s0-.23-.06-.68-.07-1.13-.13-2c0-.44,0-.93-.09-1.47s-.17-1.12-.26-1.76-.21-1.31-.33-2a20.55,20.55,0,0,0-.55-2.3A40.27,40.27,0,0,0,152,62.57a41.85,41.85,0,0,0-10.66-11.88l-1.81-1.35c-.63-.42-1.3-.8-2-1.21s-1.31-.85-2-1.18l-2.17-1-1.11-.52L131.08,45l-2.36-.85c-.8-.27-1.63-.44-2.46-.66a21.58,21.58,0,0,0-2.53-.58,39.77,39.77,0,0,0-5.3-.61c-.9,0-1.81-.12-2.72-.11l-2.77.15c-.47,0-.93,0-1.4.09l-1.39.21c-.93.16-1.88.27-2.82.46a44.25,44.25,0,0,0-5.58,1.64,43.55,43.55,0,0,0-5.45,2.39c-.88.48-1.73,1-2.6,1.56-.43.27-.89.51-1.3.82l-1.23.92a45.94,45.94,0,0,0-4.74,4C85.72,55.2,85,56,84.3,56.76l-.53.59-.48.63-1,1.29-1,1.28-.84,1.38-.84,1.38-.42.7-.36.73c-.47,1-1,2-1.42,3l-1.14,3.09A44.8,44.8,0,0,0,74.2,84a44.82,44.82,0,0,0,2.15,13.2l1.14,3.1c.47,1,.94,2,1.42,3l.35.73.42.69.85,1.39.84,1.37,1,1.29,1,1.28.48.64.53.59,2.13,2.34a47.42,47.42,0,0,0,4.74,4l1.23.92c.41.31.87.55,1.29.82.88.52,1.73,1.08,2.61,1.56a43.55,43.55,0,0,0,5.45,2.39,44.25,44.25,0,0,0,5.58,1.64c.94.19,1.89.3,2.82.46l1.39.21c.47.06.94.06,1.4.09l2.77.15c.92,0,1.82-.08,2.73-.11a39.82,39.82,0,0,0,5.29-.61,21.58,21.58,0,0,0,2.53-.58c.83-.22,1.67-.39,2.47-.66l2.35-.85,1.16-.43,1.11-.52,2.17-1c.73-.33,1.37-.8,2-1.18s1.33-.79,2-1.21l1.81-1.35A41.88,41.88,0,0,0,152,105.38a39.67,39.67,0,0,0,4.65-11.16,20.4,20.4,0,0,0,.55-2.29c.12-.73.23-1.41.33-2.05s.21-1.21.26-1.75.06-1,.09-1.47c.06-.87.1-1.53.13-2s.06-.68.06-.68,0,.23,0,.68l-.07,2c0,.45,0,.94-.07,1.48s-.15,1.13-.24,1.77-.19,1.32-.3,2.06a22.72,22.72,0,0,1-.53,2.3,39.67,39.67,0,0,1-4.6,11.26,41.77,41.77,0,0,1-10.68,12l-1.82,1.37c-.64.42-1.32.81-2,1.23s-1.32.86-2,1.19l-2.19,1.06-1.12.54-1.17.43-2.38.87c-.8.27-1.65.45-2.48.68a22.07,22.07,0,0,1-2.56.58,39.1,39.1,0,0,1-5.35.64c-.91,0-1.83.12-2.75.11l-2.8-.14c-.47,0-1,0-1.42-.09l-1.41-.21c-.94-.16-1.9-.27-2.84-.46a43.21,43.21,0,0,1-5.65-1.65,42.54,42.54,0,0,1-5.52-2.41c-.9-.49-1.75-1-2.64-1.57-.43-.28-.9-.52-1.31-.83L90.87,118a47.1,47.1,0,0,1-4.8-4.08l-2.15-2.36-.55-.6-.48-.64-1-1.3-1-1.3-.85-1.39-.85-1.4-.43-.71-.36-.74-1.44-3c-.38-1-.77-2.09-1.15-3.14A45.19,45.19,0,0,1,73.68,84a45.18,45.18,0,0,1,2.18-13.35c.39-1.05.77-2.09,1.15-3.13l1.44-3,.36-.74.43-.7.85-1.4L81,60.27l1-1.31,1-1.29.49-.64.54-.6,2.15-2.37A48.41,48.41,0,0,1,90.88,50l1.24-.93c.42-.31.88-.55,1.31-.83.89-.52,1.75-1.08,2.64-1.57a46.73,46.73,0,0,1,11.17-4.06c.94-.19,1.9-.3,2.84-.46l1.41-.21c.47-.06,1-.06,1.42-.09l2.79-.14c.93,0,1.85.08,2.76.11a39.1,39.1,0,0,1,5.35.64,21.45,21.45,0,0,1,2.55.58c.84.23,1.68.41,2.49.68l2.38.87,1.17.43,1.11.53,2.19,1.06c.74.34,1.38.81,2.06,1.2s1.34.81,2,1.23l1.83,1.37a42,42,0,0,1,10.68,12,39.9,39.9,0,0,1,4.6,11.26,23.52,23.52,0,0,1,.53,2.31c.11.74.21,1.42.3,2.06s.2,1.23.24,1.77L158,81.3l.07,2C158.07,83.75,158.07,84,158.07,84Z" style="fill:#263238"></path><path d="M130.35,77.53c-.45-3.55-3.45-6.87-7-6.87a7.87,7.87,0,0,0-5.57,2.65A14.06,14.06,0,0,0,116.33,75a14.63,14.63,0,0,0-1.06-1.92,7.84,7.84,0,0,0-4.94-3.7c-3.52-.7-7.12,1.95-8.25,5.35s-.19,7.22,1.67,10.28a20.17,20.17,0,0,0,11,9c4.07-.52,9.52-4.14,12-6.77S130.79,81.09,130.35,77.53Z" style="fill:#FF725E"></path><path d="M114.72,94.08h0a20,20,0,0,1-11-9.06c-2.1-3.44-2.71-7.2-1.68-10.29a8.43,8.43,0,0,1,3.25-4.23,6.61,6.61,0,0,1,5-1.14,7.82,7.82,0,0,1,5,3.7,13.91,13.91,0,0,1,1,1.89,14.34,14.34,0,0,1,1.39-1.65,7.83,7.83,0,0,1,5.59-2.65h0A6.69,6.69,0,0,1,128,72.75a8.46,8.46,0,0,1,2.34,4.78c.4,3.24-.93,6.8-3.67,9.77-2.3,2.49-7.73,6.23-12,6.77Zm-5.54-24.8a6.94,6.94,0,0,0-3.86,1.25,8.45,8.45,0,0,0-3.22,4.2c-1,3.09-.42,6.83,1.67,10.26a20,20,0,0,0,11,9c4.22-.54,9.64-4.27,11.93-6.76,2.73-3,4.06-6.5,3.66-9.72A8.36,8.36,0,0,0,128,72.78a6.65,6.65,0,0,0-4.68-2.1h0a7.79,7.79,0,0,0-5.55,2.65A14.59,14.59,0,0,0,116.35,75l0,0,0,0a13.73,13.73,0,0,0-1-1.92,7.81,7.81,0,0,0-4.93-3.69A6.29,6.29,0,0,0,109.18,69.28Z" style="fill:#263238"></path><path d="M129.05,83.92h-.11l-.35,0-1.33-.11-4.87-.45.09,0-2,5.29-.12.32-.08-.33c-.62-2.57-1.32-5.45-2-8.48-.22-.94-.44-1.86-.66-2.77l.21.05L114,82.48l0,0h-.06l-8.56-.89L103,81.36l-.64-.08a.74.74,0,0,1-.22,0h.22l.64.05,2.43.21,8.57.81-.09,0c1.13-1.58,2.38-3.3,3.7-5.13l.15-.2.06.24c.21.9.43,1.83.66,2.77l2,8.48h-.2l2.07-5.28,0-.06h.07l4.86.53,1.32.15.35.05Z" style="fill:#263238"></path><path d="M137.53,101.81c0,.14-9.93.26-22.17.26s-22.18-.12-22.18-.26,9.93-.26,22.18-.26S137.53,101.67,137.53,101.81Z" style="fill:#263238"></path><path d="M125.25,106.37a92.26,92.26,0,0,1-9.89.26,92.1,92.1,0,0,1-9.89-.26,95.34,95.34,0,0,1,9.89-.26A95.5,95.5,0,0,1,125.25,106.37Z" style="fill:#263238"></path><path d="M187.69,133c-.08.12-8.34-5.29-18.44-12.09s-18.24-12.4-18.16-12.52,8.34,5.29,18.45,12.09S187.77,132.88,187.69,133Z" style="fill:#263238"></path></g></svg>