<svg xmlns="http://www.w3.org/2000/svg" viewBox="0 0 500 500"><g id="freepik--background-complete--inject-326"><polygon points="256.31 232.97 256.31 232.98 256.34 232.98 256.31 232.97" style="fill:none"></polygon><polygon points="256.23 232.97 256.3 232.98 256.25 232.95 256.23 232.97" style="fill:none"></polygon><polygon points="256.14 232.92 256.1 232.98 256.22 232.98 256.14 232.92" style="fill:none"></polygon><polygon points="256.04 232.91 256.06 232.9 256.03 232.89 256.04 232.91" style="fill:none"></polygon><polygon points="256.02 232.75 256.02 232.76 256.04 232.77 256.02 232.75" style="fill:none"></polygon><polygon points="256.29 232.91 256.27 232.92 256.29 232.94 256.29 232.91" style="fill:none"></polygon><polygon points="255.99 232.94 255.98 232.87 255.65 232.78 255.95 232.97 255.99 232.94" style="fill:none"></polygon><polygon points="256 232.88 255.99 232.94 256.04 232.91 256 232.88" style="fill:none"></polygon><polygon points="256.26 232.88 256.22 232.89 256.25 232.91 256.26 232.88" style="fill:none"></polygon><polygon points="256.23 232.95 256.21 232.94 256.22 232.97 256.23 232.95" style="fill:none"></polygon><path d="M228.12,39l14,97.43.4-.06,13.62,95.49,13.51-95.51.21,0,13.45-95.85A209.68,209.68,0,0,0,228.12,39Z" style="fill:#f5f5f5"></path><path d="M382.78,85.86a208.07,208.07,0,0,0-46.63-29.33l-39.79,87.65.22.1-40.22,88.4Z" style="fill:#f5f5f5"></path><path d="M162.83,205.6h0l92.58,27.11h-.36l.89.26h0l0,0v0l.07,0v0h0v0l0,0,0-.06.08.06h-.12l.06.05,0,0v0h0l.06,0v0l0,0h0l-.05,0,.37.17-.31-.2,93.13,27.26-.06.2,103.34,30.38a208.59,208.59,0,0,0,5-45.22c0-4.33-.15-8.63-.41-12.9H353.41v.16l-97,.11h0l0,0,0-.09.42-.13-.35.23.86-.25h-.42l189.16-56a206.72,206.72,0,0,0-25.71-50.05L256.79,232.71h-.33l.14-.16-.25.16h0v0l0,0,.09-.53-.18.4,0,.13-.12.08,0-.08H256v-.13l-.15-.34.06.43,0,0h0l-.2-.13.1.12h-.32l-172.31-111A206.91,206.91,0,0,0,54.94,174ZM256.31,233h0Zm-.08,0,0,0,.05,0Zm.06-.08v0l0,0Zm0,0v0l0,0Zm0,.07v0Zm-.19,0v0h0Zm0-.16,0,0h0Zm0,.13,0,0-.05,0Zm0,0v.07l0,0-.3-.19Z" style="fill:#f5f5f5"></path><path d="M192.36,159.32h0l63.53,73.31-40.3-88.29,0,0L173.57,52.39A207.53,207.53,0,0,0,124,80.46Z" style="fill:#f5f5f5"></path><path d="M338,285.68l-.06.08-81.39-52.41L320,306.56l-.15.14L395.36,394a208.59,208.59,0,0,0,36.41-47.77Z" style="fill:#f5f5f5"></path><polygon points="256.28 233.18 256.26 233.17 256.28 233.19 256.28 233.18" style="fill:#f5f5f5"></polygon><polygon points="256.05 233 256.04 233.03 256 233 256.01 233.08 256.02 233.07 256.02 233.07 256.08 233.06 256.05 233.03 256.07 233.01 256.09 233.01 256.08 233 256.1 232.98 256 232.98 256.05 233" style="fill:#f5f5f5"></polygon><polygon points="255.97 233.09 255.99 232.99 255.96 232.98 255.58 233.2 255.97 233.09" style="fill:#f5f5f5"></polygon><path d="M255.74,233.39l-81.18,52.67-.19-.3L71.68,352.22a208.74,208.74,0,0,0,39.92,48.29l93.19-107.95Z" style="fill:#f5f5f5"></path><path d="M162.88,260.54,255.93,233l-213.28.23q-.37,6.15-.38,12.4a208.4,208.4,0,0,0,5.78,48.83l114.84-33.88Z" style="fill:#f5f5f5"></path><path d="M255.88,233.72,164.34,434.91A206.31,206.31,0,0,0,225,451.85Z" style="fill:#f5f5f5"></path><polygon points="256.3 233.03 256.28 233.04 256.3 233.07 256.3 233.03" style="fill:#f5f5f5"></polygon><path d="M256.4,233.7,287.26,450A206.41,206.41,0,0,0,346,429.89Z" style="fill:#f5f5f5"></path><polygon points="256.05 233.35 256.15 234.08 256.25 233.37 256.15 233.14 256.05 233.35" style="fill:#f5f5f5"></polygon><polygon points="256.26 233.05 256.25 233.06 256.27 233.06 256.26 233.05" style="fill:#f5f5f5"></polygon><path d="M188.56,446.75l-.69-.23-2-.75-3.26-1.22-2.08-.79c-.73-.29-1.5-.64-2.33-1l-5.47-2.35c-2-.89-4.11-1.95-6.4-3s-4.69-2.4-7.24-3.73-5.18-2.89-8-4.5-5.56-3.45-8.52-5.31c-1.49-.91-2.92-2-4.42-3s-3-2.08-4.54-3.19l-4.58-3.47c-.77-.59-1.56-1.17-2.33-1.78l-2.31-1.9c-1.54-1.28-3.13-2.55-4.69-3.89l-4.68-4.17c-1.6-1.38-3.11-2.91-4.67-4.41s-3.17-3-4.67-4.63l-4.64-4.86-4.52-5.13a227,227,0,0,1-17.15-22.76,225.8,225.8,0,0,1-13.92-24.88c-1-2.08-1.93-4.16-2.88-6.21L60,323.38c-.89-2-1.6-4.11-2.36-6.14s-1.53-4-2.15-6.05-1.29-4-1.93-6-1.12-4-1.67-5.87q-.41-1.46-.81-2.88c-.25-1-.46-1.91-.69-2.85q-.68-2.85-1.33-5.59c-.4-1.84-.73-3.66-1.09-5.44s-.73-3.52-1-5.25c-.5-3.46-1.12-6.76-1.42-10s-.76-6.2-.91-9.08-.47-5.58-.5-8.12-.18-4.91-.2-7.09,0-4.16.06-6c0-.89,0-1.74,0-2.53s.08-1.53.12-2.22c.08-1.37.14-2.53.19-3.48s.1-1.64.13-2.14.06-.72.06-.72,0,.24,0,.73,0,1.21-.07,2.14-.09,2.1-.14,3.47q0,1-.09,2.22c0,.8,0,1.64,0,2.53,0,1.79,0,3.78,0,6s.16,4.54.24,7.07.33,5.24.53,8.11.58,5.89.95,9.07,1,6.47,1.46,9.92c.24,1.73.64,3.46,1,5.24s.7,3.59,1.1,5.43.89,3.68,1.34,5.57c.23.94.45,1.89.7,2.85s.54,1.9.81,2.86c.56,1.92,1.08,3.89,1.68,5.85S55.33,309,56,311s1.41,4,2.15,6,1.47,4.09,2.36,6.12l2.58,6.18,2.88,6.2a210.36,210.36,0,0,0,31,47.51l4.51,5.13,4.62,4.85c1.5,1.63,3.11,3.12,4.65,4.63s3.06,3,4.66,4.4l4.66,4.17c1.56,1.35,3.14,2.62,4.68,3.9l2.3,1.89c.77.62,1.55,1.2,2.32,1.79l4.56,3.47c1.52,1.11,3,2.15,4.52,3.2s2.92,2.09,4.41,3c2.94,1.86,5.7,3.76,8.49,5.33s5.35,3.2,7.91,4.52,4.9,2.69,7.21,3.76,4.4,2.16,6.37,3.07l5.45,2.38c.82.36,1.59.71,2.32,1l2.07.81,3.24,1.27,2,.8Z" style="fill:#e0e0e0"></path><path d="M136,421.87c6.2-9,5.41-21.47.27-31.08s-14-16.73-23.25-22.44c-3.56,9.77-3.59,22.25,1,31.57s12.88,15.57,21.94,21.95" style="fill:#e0e0e0"></path><path d="M136,421.86c-1.95-10.72-11.35-19-21.78-22.17s-21.71-1.95-32.31.58c4.39,9.42,13.2,18.27,23,21.58s20.12,1.91,31,0" style="fill:#ebebeb"></path><path d="M90,377.05c6.53-6.64,7.69-17.29,4.76-26.13s-9.32-16.12-16.31-22.28c-4.43,7.71-6.27,18.21-3.73,26.73s8.58,15,15.28,21.68" style="fill:#e0e0e0"></path><path d="M90.05,377.05c-.08-9.31-6.79-17.66-15.12-21.83s-18-4.81-27.29-4.23c2.32,8.58,8.45,17.31,16.27,21.54s16.67,4.54,26.14,4.52" style="fill:#ebebeb"></path><path d="M60.15,326.69C67,323.38,70.72,315.55,70.88,308s-2.75-14.86-6.42-21.47C59,291.22,54.72,298.76,54.35,306s2.49,13.79,5.8,20.73" style="fill:#e0e0e0"></path><path d="M60.18,326.69c2.47-7.14-.4-15.34-5.63-20.8s-12.45-8.56-19.72-10.64c-.55,7.19,1.76,15.53,6.59,20.89s11.51,8,18.76,10.55" style="fill:#ebebeb"></path><path d="M46.26,275.36c6.5-1.6,11.23-7.67,12.78-14.18s.38-13.39-1.56-19.79c-5.62,3-10.72,8.77-12.38,14.94s-.42,12.41,1.16,19" style="fill:#e0e0e0"></path><path d="M46.28,275.37c3.47-5.72,2.52-13.36-1-19.06s-9.18-9.74-15.09-12.89c-1.82,6.12-1.37,13.78,1.82,19.32s8.47,9.07,14.27,12.63" style="fill:#ebebeb"></path><path d="M43.77,234.91s-14.71-21.09,7.84-32.71C51.61,202.2,65,221.78,43.77,234.91Z" style="fill:#ebebeb"></path><path d="M316,445.26s.23-.11.67-.29l2-.81,3.23-1.29,2.07-.81c.73-.31,1.49-.66,2.31-1l5.44-2.41c2-.92,4.08-2,6.36-3.11s4.65-2.44,7.19-3.79,5.14-2.93,7.89-4.56,5.53-3.5,8.47-5.37c1.48-.93,2.9-2,4.38-3s3-2.09,4.51-3.21l4.54-3.49c.77-.6,1.55-1.18,2.32-1.8l2.28-1.91c1.53-1.29,3.11-2.57,4.66-3.92l4.64-4.19c1.6-1.39,3.09-2.92,4.64-4.43s3.14-3,4.63-4.65l4.59-4.87,4.49-5.15a228,228,0,0,0,17-22.79A229.34,229.34,0,0,0,438,333.47l2.85-6.21,2.55-6.19c.87-2,1.57-4.11,2.32-6.13s1.52-4,2.13-6.05,1.28-4,1.91-6,1.1-3.93,1.65-5.86c.27-1,.53-1.92.8-2.87s.45-1.91.68-2.85q.66-2.84,1.31-5.58c.4-1.84.72-3.65,1.08-5.43s.72-3.52.95-5.25c.5-3.45,1.12-6.74,1.41-9.93s.75-6.19.9-9.06.47-5.58.5-8.12.18-4.9.21-7.07,0-4.16-.05-5.95c0-.89,0-1.74,0-2.53s-.07-1.53-.11-2.22c-.06-1.37-.11-2.53-.15-3.47l-.09-2.14c0-.49,0-.73,0-.73s0,.24.06.72.08,1.21.14,2.14.13,2.11.21,3.48c0,.69.08,1.43.13,2.22s0,1.63.05,2.53c0,1.79.06,3.78.09,5.95s-.1,4.54-.16,7.08-.28,5.25-.46,8.13-.52,5.91-.86,9.09-.89,6.49-1.38,10c-.23,1.73-.62,3.47-.94,5.26s-.67,3.6-1.06,5.44-.87,3.7-1.31,5.59c-.22.95-.43,1.91-.68,2.86s-.52,1.92-.79,2.88c-.54,1.93-1,3.9-1.64,5.88s-1.26,3.95-1.91,6-1.39,4-2.11,6.07-1.45,4.11-2.33,6.15l-2.55,6.21-2.85,6.23a210.78,210.78,0,0,1-30.83,47.78q-2.28,2.59-4.5,5.16l-4.62,4.88c-1.49,1.64-3.1,3.13-4.64,4.65s-3.06,3-4.65,4.43l-4.66,4.19c-1.56,1.36-3.14,2.63-4.68,3.92l-2.29,1.91c-.77.62-1.56,1.2-2.33,1.8l-4.56,3.49c-1.51,1.11-3,2.15-4.52,3.2s-2.92,2.11-4.41,3c-2.95,1.87-5.7,3.78-8.49,5.35S348,430.71,345.4,432s-4.91,2.7-7.22,3.76-4.4,2.16-6.38,3.07l-5.47,2.37c-.82.35-1.59.7-2.32,1l-2.08.8-3.25,1.24-2,.76C316.22,445.19,316,445.26,316,445.26Z" style="fill:#e0e0e0"></path><path d="M368.43,420.11c-6.25-8.93-5.52-21.44-.42-31.07s13.88-16.8,23.14-22.55c3.61,9.75,3.7,22.23-.88,31.56s-12.8,15.65-21.84,22.06" style="fill:#e0e0e0"></path><path d="M368.39,420.11c1.9-10.74,11.26-19.07,21.68-22.28s21.69-2.06,32.3.42c-4.34,9.45-13.1,18.34-22.94,21.7s-20.11,2-31,.16" style="fill:#ebebeb"></path><path d="M414.19,375.08c-6.57-6.62-7.77-17.26-4.88-26.11s9.24-16.17,16.2-22.37c4.46,7.69,6.35,18.19,3.85,26.72s-8.5,15-15.17,21.76" style="fill:#e0e0e0"></path><path d="M414.15,375.08c0-9.32,6.71-17.7,15-21.92s18-4.89,27.27-4.35c-2.28,8.59-8.36,17.35-16.16,21.61s-16.65,4.62-26.12,4.66" style="fill:#ebebeb"></path><path d="M443.8,324.56c-6.81-3.27-10.62-11.08-10.82-18.63s2.68-14.88,6.31-21.5c5.5,4.66,9.8,12.17,10.21,19.38s-2.42,13.8-5.7,20.75" style="fill:#e0e0e0"></path><path d="M443.78,324.57c-2.51-7.13.32-15.35,5.52-20.83S461.71,295.12,469,293c.59,7.19-1.68,15.54-6.49,20.92S451,322,443.78,324.57" style="fill:#ebebeb"></path><path d="M457.44,273.17c-6.51-1.57-11.26-7.62-12.84-14.12s-.46-13.38,1.46-19.8c5.63,3,10.75,8.72,12.45,14.88s.48,12.41-1.07,19" style="fill:#e0e0e0"></path><path d="M457.42,273.18c-3.5-5.71-2.58-13.35.9-19.07s9.14-9.78,15-13c1.85,6.11,1.43,13.77-1.72,19.32s-8.44,9.12-14.22,12.71" style="fill:#ebebeb"></path><path d="M459.73,232.71s14.61-21.17-8-32.67C451.74,200,438.46,219.68,459.73,232.71Z" style="fill:#ebebeb"></path></g><g id="freepik--Character--inject-326"><path d="M208.39,228.61,183,191.05l9.21-89.63.75,0c3.85-.06,13.58-9,15-12S206.35,63.86,205.73,64c-6.18,1.79-5.44,8.85-5.44,8.85l-.73-6c-1.83-8.76-8.2-4.82-8.2-4.82-2.86-5.53-8.6-1.16-8.6-1.16-1.59-4.69-6-.57-6-.57s0-1.49-4.76-3.36c-2.61-1-5.28,2.56-7.16,6a19.36,19.36,0,0,0-2.28,10.32l-2.47,26.06-20.8,105.79,56,79,36.39-36.83Z" style="fill:#ffbe9d"></path><path d="M186,91.6a10.65,10.65,0,0,1,2.62-3.15,24,24,0,0,1,8.51-5.07,25.25,25.25,0,0,1,3.87-1l-.35.43c0-2.86-.38-5.31-.46-7.11a8.94,8.94,0,0,1,.12-2.83,15.35,15.35,0,0,1,.41,2.79,63.31,63.31,0,0,1,.77,7.13v.36l-.36.06a26.47,26.47,0,0,0-3.73,1A26.75,26.75,0,0,0,189,88.92C187.09,90.49,186.09,91.69,186,91.6Z" style="fill:#eb996e"></path><path d="M170.62,66.39a4.13,4.13,0,0,1,.62,1.37,6,6,0,0,1,.16,4.14c-.33.92-1.29,1.51-1.48,2.29a2.84,2.84,0,0,0,.78,2.58,4.12,4.12,0,0,0,5.91-.33,6.17,6.17,0,0,0,1.11-3.33c.09-1.19.09-2.39.07-3.5a51.41,51.41,0,0,0-.43-6,9.77,9.77,0,0,0-1-3.8,8.67,8.67,0,0,0-.93-1.11s.59.12,1.21.92a8.91,8.91,0,0,1,1.35,3.9,45.16,45.16,0,0,1,.62,6,33.31,33.31,0,0,1,0,3.59A6.83,6.83,0,0,1,177.3,77a4.91,4.91,0,0,1-7.19.34,3.56,3.56,0,0,1-.89-3.34,3.38,3.38,0,0,1,.89-1.33,3.86,3.86,0,0,0,.73-1,6.17,6.17,0,0,0,.07-3.8A5.89,5.89,0,0,1,170.62,66.39Z" style="fill:#eb996e"></path><path d="M176.61,77c.07,0,.16.37.59.9a3.69,3.69,0,0,0,2.42,1.26,4.21,4.21,0,0,0,3.6-1.6A8.27,8.27,0,0,0,185,72.78a21.06,21.06,0,0,0-1.33-9.53c-.88-2.35-1.76-3.65-1.65-3.73s1.17,1.13,2.22,3.49a19.35,19.35,0,0,1,1.63,9.85,8.68,8.68,0,0,1-2,5.23,4.81,4.81,0,0,1-4.29,1.69,3.8,3.8,0,0,1-2.61-1.69C176.53,77.44,176.57,77,176.61,77Z" style="fill:#eb996e"></path><path d="M184.12,77.49c.06,0,.24.28.69.69a4.15,4.15,0,0,0,2.3,1,4.41,4.41,0,0,0,3.47-1,6.93,6.93,0,0,0,2.23-4c.58-3.31-.52-6.43-.9-8.67a16.31,16.31,0,0,1-.57-3.68,15.46,15.46,0,0,1,1.17,3.54c.3,1.11.69,2.41,1,3.92a13.25,13.25,0,0,1,.16,5.06,7.42,7.42,0,0,1-2.59,4.42,4.94,4.94,0,0,1-4.07,1,4.13,4.13,0,0,1-2.45-1.4C184.15,77.88,184.08,77.5,184.12,77.49Z" style="fill:#eb996e"></path><path d="M192.85,76.72c.07,0,.15.38.34,1.06a7.6,7.6,0,0,0,1.26,2.6A3.59,3.59,0,0,0,198,81.71c1.42-.39,2.33-2.19,2.2-4a57.86,57.86,0,0,0-1-9.81,36.48,36.48,0,0,1-.75-4,13.28,13.28,0,0,1,1.36,3.91,43.43,43.43,0,0,1,1.25,9.94c.14,2-.88,4.29-2.86,4.8A4.18,4.18,0,0,1,194,80.75a6.61,6.61,0,0,1-1.1-2.9A2.34,2.34,0,0,1,192.85,76.72Z" style="fill:#eb996e"></path><path d="M170.05,205.15a14.14,14.14,0,0,1,1.43-2.54,48.45,48.45,0,0,1,9.29-10.51,12.07,12.07,0,0,1,2.35-1.72,25.65,25.65,0,0,1-2.11,2c-1.31,1.21-3.07,2.94-4.88,5s-3.3,4-4.35,5.46A20.29,20.29,0,0,1,170.05,205.15Z" style="fill:#eb996e"></path><polygon points="259.74 266.93 207.35 220.47 164.39 255.43 225.29 330.5 259.74 266.93" style="fill:#FD904D"></polygon><path d="M173.22,264.46a3.16,3.16,0,0,1,.34-.46c.29-.32.64-.73,1.07-1.23.91-1.08,2.33-2.56,4.12-4.36a166,166,0,0,1,15-12.93A175.83,175.83,0,0,1,210,234.25c2.17-1.31,4-2.27,5.24-2.91.64-.31,1.15-.53,1.49-.68a1.93,1.93,0,0,1,.53-.2,3,3,0,0,1-.49.29l-1.43.77c-1.23.69-3,1.7-5.15,3-4.28,2.67-10.05,6.61-16.16,11.32a190.74,190.74,0,0,0-15,12.79c-1.82,1.75-3.27,3.19-4.23,4.22l-1.14,1.17A2.39,2.39,0,0,1,173.22,264.46Z" style="fill:#fafafa"></path><path d="M221.63,233.54a2.87,2.87,0,0,1-.49.34l-1.45.88c-1.26.75-3.07,1.87-5.29,3.27-4.45,2.8-10.46,6.86-16.78,11.79s-11.72,9.79-15.52,13.42c-1.9,1.81-3.41,3.3-4.45,4.35l-1.21,1.18a2.87,2.87,0,0,1-.44.39s.11-.17.37-.46l1.14-1.26c1-1.08,2.47-2.61,4.34-4.47a179.16,179.16,0,0,1,32.35-25.26c2.25-1.36,4.1-2.42,5.39-3.12l1.5-.8A2.71,2.71,0,0,1,221.63,233.54Z" style="fill:#fafafa"></path><path d="M184.38,91.16a42.32,42.32,0,0,0-6-4,41.31,41.31,0,0,0-6.8-2.42,6.83,6.83,0,0,1,2.14.23,20.28,20.28,0,0,1,4.89,1.73,19.92,19.92,0,0,1,4.29,2.91A6.81,6.81,0,0,1,184.38,91.16Z" style="fill:#eb996e"></path><path d="M194,101.8a64.87,64.87,0,0,1-8,1.52,65.6,65.6,0,0,1-8.1,1,65.36,65.36,0,0,1,8-1.52A65.6,65.6,0,0,1,194,101.8Z" style="fill:#eb996e"></path><path d="M229.88,178.87A40,40,0,0,1,269.66,142h2.07c22.33,1.26,33.73,20.93,31.85,43.21l-4,103H248.4l.46-33.5s-21.47-3.3-21.78-24.75C226.93,219.55,228.36,198.19,229.88,178.87Z" style="fill:#ffbe9d"></path><path d="M248.68,254.64a52.11,52.11,0,0,0,28.1-8.29s-6.58,15.45-28,13.57Z" style="fill:#eb996e"></path><path d="M234.51,195.29c.38.4,2.7-1.32,6-1.32s5.71,1.64,6.07,1.24c.18-.18-.21-.9-1.27-1.67a8.37,8.37,0,0,0-4.86-1.48,8,8,0,0,0-4.77,1.55C234.66,194.39,234.32,195.11,234.51,195.29Z" style="fill:#263238"></path><path d="M267.2,193.64c.39.4,2.71-1.32,6-1.32s5.72,1.65,6.08,1.24c.17-.18-.21-.9-1.27-1.66a8.45,8.45,0,0,0-4.87-1.49,8.15,8.15,0,0,0-4.77,1.55C267.36,192.74,267,193.46,267.2,193.64Z" style="fill:#263238"></path><path d="M255,214.38c0-.18-2-.53-5.36-.95-.84-.09-1.64-.25-1.78-.83a4.29,4.29,0,0,1,.55-2.49q1.19-3.06,2.48-6.42c3.44-9.14,5.93-16.65,5.56-16.78s-3.46,7.16-6.9,16.29c-.82,2.25-1.62,4.4-2.37,6.46a4.91,4.91,0,0,0-.43,3.3,2.11,2.11,0,0,0,1.39,1.23,6.19,6.19,0,0,0,1.43.2C252.92,214.56,255,214.57,255,214.38Z" style="fill:#263238"></path><path d="M264.72,216.64c-.54,0-.54,3.55-3.6,6.1s-6.87,2.16-6.89,2.66c0,.23.85.69,2.46.74a9,9,0,0,0,5.76-2,7.82,7.82,0,0,0,2.78-5.11C265.36,217.51,265,216.62,264.72,216.64Z" style="fill:#263238"></path><path d="M267.17,180.22c.3.9,3.61.56,7.46,1.12s7,1.69,7.49.9c.24-.38-.28-1.24-1.52-2.13a13.11,13.11,0,0,0-11.39-1.55C267.77,179.1,267,179.79,267.17,180.22Z" style="fill:#e0e0e0"></path><path d="M233.73,181.8c.72.74,3.49-.07,6.83-.16s6.18.42,6.82-.37c.28-.38-.17-1.13-1.42-1.82a11,11,0,0,0-5.57-1.15,10.87,10.87,0,0,0-5.43,1.58C233.79,180.66,233.41,181.44,233.73,181.8Z" style="fill:#e0e0e0"></path><path d="M300.37,201.11c.37-.16,14.74-4.39,14.3,10.28s-15.08,11.21-15.09,10.79S300.37,201.11,300.37,201.11Z" style="fill:#ffbe9d"></path><path d="M302.94,216.75c.06,0,.25.19.67.4a2.6,2.6,0,0,0,1.91.1c1.57-.53,3-2.95,3.1-5.59A8.44,8.44,0,0,0,308,208a2.92,2.92,0,0,0-1.86-2,1.3,1.3,0,0,0-1.53.66c-.21.4-.12.69-.2.72s-.31-.26-.17-.86a1.58,1.58,0,0,1,.6-.9,1.88,1.88,0,0,1,1.42-.33,3.6,3.6,0,0,1,2.61,2.35,8.75,8.75,0,0,1,.76,4.12c-.18,2.95-1.78,5.67-3.92,6.22a2.71,2.71,0,0,1-2.32-.46C303,217.11,302.89,216.78,302.94,216.75Z" style="fill:#eb996e"></path><path d="M250.18,174.1a13.34,13.34,0,0,1,2.57.37c1.57.28,3.74.69,6.15,1a36,36,0,0,0,6.19.21c1.58-.1,2.56-.27,2.58-.19a8.48,8.48,0,0,1-2.55.55,27,27,0,0,1-6.28,0,52.59,52.59,0,0,1-6.17-1.13A12,12,0,0,1,250.18,174.1Z" style="fill:#eb996e"></path><path d="M250.55,169.69c.07-.15,2.89,1.37,6.66,2.36s7,1.1,7,1.27a7.18,7.18,0,0,1-2.09.05,25.91,25.91,0,0,1-9.73-2.59A6.65,6.65,0,0,1,250.55,169.69Z" style="fill:#eb996e"></path><path d="M264.64,215.39c0-.06.26-.19.74-.2a3.49,3.49,0,0,1,3.06,1.82c.21.42.24.72.18.74s-.59-1-1.73-1.62A9.31,9.31,0,0,0,264.64,215.39Z" style="fill:#eb996e"></path><path d="M267.83,212.17a4.66,4.66,0,0,1,2.21-.11,8.59,8.59,0,0,1,7.4,6.89,4.6,4.6,0,0,1,.05,2.2c-.09,0-.07-.84-.41-2.12a8.93,8.93,0,0,0-7.1-6.61C268.68,212.17,267.84,212.26,267.83,212.17Z" style="fill:#eb996e"></path><path d="M228.24,153a25.71,25.71,0,0,0,3-3.66c.92-1.58,1.28-3.41,2.08-5.05a10.78,10.78,0,0,1,13.13-5.16,15.37,15.37,0,0,1,21.16-6.4c1.26.71,2.52,1.62,4,1.61a9.45,9.45,0,0,0,3.43-1.14,12,12,0,0,1,16.62,10,9.06,9.06,0,0,1,10.61,10.94,10.32,10.32,0,0,1,10.58,17.31c2.39,1.55,3.07,5,2,7.63a10.39,10.39,0,0,1-6.26,5.46,17.17,17.17,0,0,1-2.33.66c-.8,2.49-1.56,4.93-2.09,7.27-.91,4-2.67,16.16-2.67,16.16h0c-3.37,0-4.62-2.69-4.11-6l.63-13.08s-11.47-8.14-6-23.06a8.4,8.4,0,0,0,1.18-4.1c-.93-5.18-5.79-4.34-8.68-4a22.09,22.09,0,0,0-8.08,3.19,34,34,0,0,1-7.85,3.79c-4.53,1.24-9.42.3-13.78-1.49-2.52-1-5.11-2.38-7.82-2.05-5.74.7-8.75,8.38-14.51,8.86-3.88.32-7.36-3.18-7.94-7S225.68,155.9,228.24,153Z" style="fill:#e0e0e0"></path><path d="M229,152.08s-.06.23-.08.66a3.11,3.11,0,0,0,.59,1.78A3.47,3.47,0,0,0,232,156a5.57,5.57,0,0,0,3.76-1.21A15.36,15.36,0,0,0,239,151a13.54,13.54,0,0,1,4.05-4.32,9,9,0,0,1,6.55-.75,15.74,15.74,0,0,1,6.31,3.47l-.41.15a10.35,10.35,0,0,1,5.78-7.32,10.24,10.24,0,0,1,8.79.24,11.41,11.41,0,0,1,3.34,2.67c.94,1,1.78,2.08,2.73,3a6.62,6.62,0,0,0,3.19,1.8,7.55,7.55,0,0,0,3.47-.32c1.11-.31,2.18-.71,3.26-.95a9.74,9.74,0,0,1,3.16-.18,9.54,9.54,0,0,1,5,2.05,9.48,9.48,0,0,1,3.33,5.65c0,.29.07.51.08.67a1.19,1.19,0,0,1,0,.22,12,12,0,0,0-1.06-3.25,9.21,9.21,0,0,0-7.36-5,9,9,0,0,0-3,.21c-1,.24-2.1.64-3.23,1a8.06,8.06,0,0,1-3.68.35,7.05,7.05,0,0,1-3.43-1.9c-2-1.8-3.42-4.3-6-5.52A9.6,9.6,0,0,0,256,149.63l-.09.43-.33-.28a15.31,15.31,0,0,0-6.1-3.39,8.5,8.5,0,0,0-6.21.67,13.2,13.2,0,0,0-4,4.15,15.48,15.48,0,0,1-3.36,3.84,5.76,5.76,0,0,1-4,1.19,3.68,3.68,0,0,1-2.63-1.62,3,3,0,0,1-.53-1.88A1.86,1.86,0,0,1,229,152.08Z" style="fill:#fff"></path><path d="M298.24,181.18c0-.05.54.12,1.53.22a9.31,9.31,0,0,0,4.1-.53,7.59,7.59,0,0,0,4.35-4,7.18,7.18,0,0,0,.63-3.49,6.38,6.38,0,0,0-1.42-3.49,6.2,6.2,0,0,0-4-2.33l-.54-.06.4-.37a5.73,5.73,0,0,0,1.67-5.17,5.36,5.36,0,0,0-2.51-3.6,6.16,6.16,0,0,0-2.86-.89c-.71,0-1.1,0-1.1,0s.09-.05.27-.09a4.73,4.73,0,0,1,.83-.09,5.75,5.75,0,0,1,3,.79,5.64,5.64,0,0,1,2.78,3.79,6.15,6.15,0,0,1-1.76,5.62l-.14-.44a6.74,6.74,0,0,1,4.38,2.5,6.88,6.88,0,0,1,1.52,3.78,7.45,7.45,0,0,1-.71,3.72,7.87,7.87,0,0,1-4.66,4.2,9,9,0,0,1-4.25.38,8.52,8.52,0,0,1-1.13-.26C298.36,181.25,298.23,181.2,298.24,181.18Z" style="fill:#fff"></path><path d="M192.28,474.86c0-.45,0,3.12,0,0,0-25.2,9.67-82,9.67-82,1.09-8,23.2-109.56,23.2-109.56l24-10.66h0a15.5,15.5,0,0,0,20.34,7.78l31.38-13.79,45,24.83,9.31,55.5s-30,69.18-29,74.19-6.59,34-6.59,34l.26,19.9Z" style="fill:#FD904D"></path><g style="opacity:0.30000000000000004"><path d="M229.64,440.9c6.16,8.9,10.05,15.2,19,18.16,17.11,5.68,22.62,2.55,30.93-1.84,6.87-3.62,11.49-11.66,16.07-17.94,11.95-16.35,17.55-25.92,28.18-42.12l4.4,3.09c-7.28,21.23-1.43,10-12.67,29.46C309,440.93,301.73,452,291.64,460.12s-23.42,13.1-36.13,10.57c-11.55-2.3-21.1-10.31-29.22-18.84C215,440,202.83,415.22,202,398.87,202,400,221.67,429.39,229.64,440.9Z"></path></g><path d="M212.73,341a1.46,1.46,0,0,1,.06-.48c.08-.37.18-.81.29-1.35.27-1.16.63-2.86,1-5,.82-4.2,1.81-10,2.75-16.5s1.7-12.34,2.29-16.58c.3-2.06.54-3.76.72-5,.1-.54.17-1,.23-1.36a1.6,1.6,0,0,1,.12-.47,1.76,1.76,0,0,1,0,.48c0,.38-.08.83-.13,1.38-.15,1.27-.33,3-.56,5-.5,4.26-1.2,10.14-2.15,16.61s-2,12.31-2.9,16.5c-.46,2.1-.87,3.79-1.2,4.94-.15.53-.28,1-.38,1.33A2.28,2.28,0,0,1,212.73,341Z" style="fill:#263238"></path><path d="M192.28,473.21a3.89,3.89,0,0,1,0-.75c0-.54.09-1.25.16-2.13.16-1.91.4-4.56.68-7.83.64-6.65,1.5-15.75,2.46-25.8s1.93-19.14,2.61-25.79c.35-3.25.64-5.91.84-7.81.11-.88.2-1.58.26-2.12a3.77,3.77,0,0,1,.13-.73,5.16,5.16,0,0,1,0,.74c0,.54-.1,1.25-.16,2.13-.17,1.91-.4,4.57-.69,7.83-.63,6.65-1.5,15.75-2.45,25.8s-1.94,19.14-2.61,25.79c-.35,3.25-.64,5.91-.85,7.81-.11.88-.19,1.58-.26,2.12A3.87,3.87,0,0,1,192.28,473.21Z" style="fill:#263238"></path><path d="M288.22,336.53a3.63,3.63,0,0,1-.75,0h-2.14c-1.86,0-4.55-.1-7.88-.22-6.65-.26-15.84-.71-26-1.63A194.65,194.65,0,0,1,225.73,331a41.25,41.25,0,0,1-7.51-2.42,10,10,0,0,1-2.46-1.54,27.25,27.25,0,0,0,2.54,1.36,45.84,45.84,0,0,0,7.52,2.24,213.88,213.88,0,0,0,25.71,3.55c10.11.92,19.29,1.43,25.94,1.78l7.87.39,2.14.11A3.86,3.86,0,0,1,288.22,336.53Z" style="fill:#fafafa"></path><path d="M282.72,347.2a5.54,5.54,0,0,1-.71.05l-2,.06c-1.76,0-4.31.07-7.47.05-6.31,0-15-.24-24.63-1.14-4.8-.46-9.35-1.08-13.47-1.77s-7.8-1.51-10.84-2.36c-1.53-.37-2.9-.8-4.1-1.17s-2.23-.69-3.05-1l-1.91-.7a3.5,3.5,0,0,1-.65-.28,4.05,4.05,0,0,1,.69.18l1.93.61c.83.29,1.87.6,3.08.92s2.57.74,4.1,1.1c3.05.8,6.73,1.51,10.83,2.23s8.65,1.27,13.44,1.73c9.57.9,18.28,1.17,24.58,1.29l7.47.12,2,0A3,3,0,0,1,282.72,347.2Z" style="fill:#fafafa"></path><path d="M241.53,258.92c.05.08-1.49,1.1-3.75,3a47.5,47.5,0,0,0-3.77,3.58,52.82,52.82,0,0,0-4.07,4.91,53.93,53.93,0,0,0-3.37,5.4,50.71,50.71,0,0,0-2.21,4.71c-1.11,2.75-1.59,4.53-1.68,4.51a5.79,5.79,0,0,1,.26-1.27,32.09,32.09,0,0,1,1.08-3.37,41.77,41.77,0,0,1,2.13-4.81,47.3,47.3,0,0,1,3.37-5.48,48.39,48.39,0,0,1,4.14-4.93,42.61,42.61,0,0,1,3.88-3.53,32.9,32.9,0,0,1,2.87-2.09A5.85,5.85,0,0,1,241.53,258.92Z" style="fill:#263238"></path><path d="M156,302.42s-.89-4.14-.32-5.22A8.26,8.26,0,0,1,158,295s.93-6.61,2.4-8.67c1.65-2.32,8.06-2,8.06-2s1.16-1.54,2.12-3.07,14.1-2.55,16.41-2.48,3.12,6.31,3.12,6.31,5-.94,5.85-.36,7.46,12.12,8,14.6-2.73,10-2.73,10c-.73,1.77-5.61,11.83-5.61,11.83l3.52,4.75L258.36,396S272,374.65,288,345.29c17.49-32.11,27-56.07,45.93-56.62l21.25,57.73c-4.45,10.86-62.13,99.26-71.21,107.68s-19.5,11.2-38.46,4.4c-13.79-5-63.26-94.11-73.22-112.29h0l-10.87-17.26-8-14.81s-.12-5.45-.47-7.73S156,302.42,156,302.42Z" style="fill:#ffbe9d"></path><path d="M183.2,282.73a3.54,3.54,0,0,1,1.31,2.08,4.53,4.53,0,0,0,3.69,3.87,8.16,8.16,0,0,1,4.33,4,6.78,6.78,0,0,1,.57,1.72,1.51,1.51,0,0,1,.05.67c-.1,0-.23-.92-.94-2.22a8.43,8.43,0,0,0-4.21-3.72,6.41,6.41,0,0,1-2.84-1.73,6.15,6.15,0,0,1-1-2.52A8.82,8.82,0,0,0,183.2,282.73Z" style="fill:#eb996e"></path><path d="M187,288.15c0-.08.39.09.93,0a2.18,2.18,0,0,0,1.53-1.36,6.28,6.28,0,0,0,.36-2.23c0-.6,0-1,.07-1s.21.34.3,1a4.88,4.88,0,0,1-.25,2.45,2.34,2.34,0,0,1-2,1.54C187.27,288.53,186.94,288.19,187,288.15Z" style="fill:#eb996e"></path><path d="M192.31,292.1c-.12,0-.57-.7-.95-1.76a2.82,2.82,0,0,1-.09-1.47c.09-.37.22-.57.28-.55s0,.89.3,1.86S192.47,292.06,192.31,292.1Z" style="fill:#eb996e"></path><path d="M167.61,292.15a8.63,8.63,0,0,1,.87-7.94c.15.07-.66,1.72-.89,3.92S167.77,292.12,167.61,292.15Z" style="fill:#eb996e"></path><path d="M158.6,299.76a6.48,6.48,0,0,1-.5-5.12,13.5,13.5,0,0,1,.24,2.56A14.06,14.06,0,0,1,158.6,299.76Z" style="fill:#eb996e"></path><path d="M156.75,307.36a4.94,4.94,0,0,1-1.28-2.4,4.87,4.87,0,0,1-.31-2.71,13.65,13.65,0,0,1,.81,2.55A14.5,14.5,0,0,1,156.75,307.36Z" style="fill:#eb996e"></path><path d="M256,428.78a5.76,5.76,0,0,1,.49-1.27c.18-.39.39-.88.61-1.46s.5-1.22.73-2a47.66,47.66,0,0,0,1.51-5.24,50.79,50.79,0,0,0,1-6.58,49.36,49.36,0,0,0,0-6.66,45.39,45.39,0,0,0-.7-5.4c-.12-.77-.3-1.45-.43-2s-.27-1.12-.39-1.54a6.19,6.19,0,0,1-.29-1.32,7,7,0,0,1,.49,1.26c.15.41.31.92.47,1.52s.36,1.28.51,2.05a40.44,40.44,0,0,1,.82,5.44,42.25,42.25,0,0,1-1,13.39,41,41,0,0,1-1.62,5.25c-.26.74-.57,1.38-.82,2a15.33,15.33,0,0,1-.69,1.44A7.51,7.51,0,0,1,256,428.78Z" style="fill:#eb996e"></path><path d="M171.41,298.84c.09,0,0,1.11.14,2.86a6.66,6.66,0,0,0,.89,2.86,3.39,3.39,0,0,0,1.26,1.14c.26.15.58.25.89.45a1.32,1.32,0,0,1,.69,1c0,.89-.51,1.41-.57,2a2.5,2.5,0,0,0,.5,1.56,17.37,17.37,0,0,0,1.78,2.52c1.14,1.34,2,2,2,2.08s-.26-.11-.66-.41a12.46,12.46,0,0,1-1.58-1.43,14.88,14.88,0,0,1-1.91-2.52,2.85,2.85,0,0,1-.59-1.89c.12-.72.62-1.29.55-1.81s-.71-.72-1.29-1a3.75,3.75,0,0,1-1.43-1.33,6.48,6.48,0,0,1-.85-3.09,11.19,11.19,0,0,1,.06-2.12C171.31,299.11,171.37,298.84,171.41,298.84Z" style="fill:#eb996e"></path><path d="M165.16,303.56a5.43,5.43,0,0,0,.09,2.27,3.63,3.63,0,0,0,1.45,1.91,2.09,2.09,0,0,1,.91,1.38,4.79,4.79,0,0,1-.2,1.7,6.92,6.92,0,0,0,.87,5.3,17.18,17.18,0,0,0,1.48,1.8s-.23-.07-.56-.32a5.84,5.84,0,0,1-1.22-1.28,6.85,6.85,0,0,1-1.08-5.62,4.43,4.43,0,0,0,.21-1.51,1.65,1.65,0,0,0-.72-1.08,3.86,3.86,0,0,1-1.49-2.18,3.52,3.52,0,0,1,0-1.78C165,303.74,165.14,303.55,165.16,303.56Z" style="fill:#eb996e"></path><path d="M341.79,289s22.76,9.39,18.32,44.23a25.45,25.45,0,0,1-2.54,8.31c-6.68,13.18-29.53,58.28-29.84,59s-53-37.18-53-37.18S305.46,273.31,341.79,289Z" style="fill:#FD904D"></path><path d="M359.39,338s0,.11-.13.31-.25.51-.43.89l-1.69,3.42c-1.51,3-3.69,7.38-6.44,12.89L327.94,400.7l-.12.25-.23-.16-39.92-28-13.09-9.19-.2-.13.12-.2c3.56-6.34,6.82-12.6,9.72-18.74s5.42-12.16,8.13-17.73,5.48-10.73,8.17-15.49a50.53,50.53,0,0,1,9-12.18,34.89,34.89,0,0,1,10-7.37,28.77,28.77,0,0,1,9-2.48,25.34,25.34,0,0,1,5.86,0c.67.09,1.17.18,1.5.25l.51.12a4.62,4.62,0,0,1-.51-.07c-.34-.06-.84-.13-1.51-.2a26.2,26.2,0,0,0-5.83.08A29,29,0,0,0,319.6,292a34.93,34.93,0,0,0-9.84,7.37,50.2,50.2,0,0,0-8.88,12.14c-2.67,4.76-5.44,9.92-8.11,15.49s-5.21,11.58-8.1,17.74-6.16,12.43-9.72,18.78l-.08-.34,13.1,9.19,39.9,28-.35.09c9.37-18.46,17.31-34.09,22.92-45.13L357,342.53l1.76-3.39.46-.87Z" style="fill:#263238"></path><path d="M337.13,379.24a2.46,2.46,0,0,1-.56-.3L335,378l-5.65-3.58-18.52-11.95c-7.25-4.66-13.86-8.79-18.67-11.73l-5.71-3.48-1.55-.95a3.14,3.14,0,0,1-.52-.36,2.08,2.08,0,0,1,.57.27l1.6.87c1.38.76,3.36,1.9,5.8,3.33,4.86,2.86,11.51,6.94,18.76,11.61s13.74,9,18.44,12.09l5.56,3.71,1.5,1A3.51,3.51,0,0,1,337.13,379.24Z" style="fill:#fafafa"></path><path d="M335.87,383.65a3.71,3.71,0,0,1-.57-.29l-1.6-.89-5.8-3.38-19-11.33-19-11.46-5.72-3.52-1.54-1a3.49,3.49,0,0,1-.52-.37,2.39,2.39,0,0,1,.57.28l1.6.9,5.8,3.38,19.05,11.32,19,11.46,5.72,3.52,1.54,1A2.49,2.49,0,0,1,335.87,383.65Z" style="fill:#fafafa"></path></g><g id="freepik--Plant--inject-326"><path d="M62.31,415.32a11.87,11.87,0,0,1,8.26,4.34,21.14,21.14,0,0,1,4.14,8.56c1.53,6,.47,13-1.29,19-6.45-2.39-10.37-9.33-12.13-13-2.79-5.77-4.34-17.88,1-18.9" style="fill:#FD904D"></path><path d="M82.65,454.53a10.18,10.18,0,0,1-.37-10.2,13.52,13.52,0,0,1,8.2-6.45c1.58-.47,3.42-.65,4.78.28a4.34,4.34,0,0,1,1.63,4.09,8.83,8.83,0,0,1-1.9,4.17c-3.19,4.22-7.06,7.73-12.34,8.11" style="fill:#FD904D"></path><path d="M83.15,474.51a7.83,7.83,0,0,1-.27-1.25c-.17-.89-.38-2-.63-3.41a35.7,35.7,0,0,1-.59-11.45A21.87,21.87,0,0,1,86,447.84a15,15,0,0,1,2.48-2.45c.31-.26.59-.42.77-.55a1.25,1.25,0,0,1,.29-.16,24.09,24.09,0,0,0-3.3,3.36,22.68,22.68,0,0,0-4.16,10.43,38.45,38.45,0,0,0,.46,11.33c.21,1.45.39,2.62.49,3.44A6.29,6.29,0,0,1,83.15,474.51Z" style="fill:#263238"></path><path d="M64.3,424.44a2.18,2.18,0,0,1,.26.49l.65,1.45c.56,1.26,1.34,3.09,2.29,5.37,1.9,4.54,4.44,10.86,7.09,17.9s4.89,13.47,6.46,18.15c.78,2.33,1.39,4.23,1.8,5.55.19.62.35,1.12.47,1.52a2.93,2.93,0,0,1,.13.53,2.08,2.08,0,0,1-.22-.51l-.54-1.49c-.48-1.35-1.14-3.22-1.94-5.5-1.64-4.65-3.94-11-6.58-18.09s-5.14-13.37-7-17.94l-2.16-5.42L64.47,425A3.94,3.94,0,0,1,64.3,424.44Z" style="fill:#263238"></path><path d="M75.61,461.21a23.8,23.8,0,0,0-18.33-11.66c-1.91-.16-4.21.14-5.09,1.85s.25,3.76,1.54,5.19a20.32,20.32,0,0,0,22,5.14" style="fill:#FD904D"></path><path d="M60.14,454.7a7.19,7.19,0,0,1,1.2.06,11.06,11.06,0,0,1,1.39.18,17.76,17.76,0,0,1,1.83.36,22,22,0,0,1,2.18.63,22.74,22.74,0,0,1,2.42.95A26.18,26.18,0,0,1,74.24,460a25.69,25.69,0,0,1,4.19,4.23,21.15,21.15,0,0,1,1.47,2.15,18.25,18.25,0,0,1,1.09,2,15.53,15.53,0,0,1,.74,1.71,8.85,8.85,0,0,1,.46,1.33,6.22,6.22,0,0,1,.3,1.16c-.09,0-.54-1.63-1.79-4.06a18.23,18.23,0,0,0-1.12-1.93,24.43,24.43,0,0,0-1.47-2.09A27.91,27.91,0,0,0,74,460.32a27.51,27.51,0,0,0-5-3.06,21.7,21.7,0,0,0-2.37-1c-.75-.29-1.47-.48-2.13-.67C61.84,454.91,60.13,454.8,60.14,454.7Z" style="fill:#263238"></path></g><g id="freepik--Starts--inject-326"><path d="M202.46,151.69l-.33,1.05a1.51,1.51,0,0,1-1,1l-1.06.33,1.06.36a1.48,1.48,0,0,1,.93.93l.38,1.08.42-1.13a1.46,1.46,0,0,1,.93-.9l1-.34-1-.34a1.49,1.49,0,0,1-.92-.88Z"></path><path d="M236.58,103.46l-.32,1.06a1.49,1.49,0,0,1-1,1l-1.06.34,1.07.36a1.51,1.51,0,0,1,.93.93l.37,1.08.42-1.13a1.52,1.52,0,0,1,.94-.91l1-.33-1-.35a1.48,1.48,0,0,1-.91-.87Z"></path><path d="M382.09,263.73l-.33,1a1.47,1.47,0,0,1-1,1l-1.06.33,1.06.36a1.52,1.52,0,0,1,.94.93l.37,1.09.42-1.14a1.5,1.5,0,0,1,.94-.9l1-.34-1-.34a1.51,1.51,0,0,1-.92-.88Z"></path><path d="M376.23,188.79l-.33,1.06a1.46,1.46,0,0,1-1,1l-1.06.33,1.06.37a1.51,1.51,0,0,1,.94.92l.37,1.09.42-1.13a1.5,1.5,0,0,1,.93-.91l1-.34-1-.34a1.5,1.5,0,0,1-.92-.87Z"></path><path d="M212.16,110.13l-1.35,4.34a6.14,6.14,0,0,1-4,4l-4.35,1.35,4.37,1.49a6.14,6.14,0,0,1,3.83,3.81l1.54,4.44,1.71-4.64a6.15,6.15,0,0,1,3.84-3.71l4.18-1.39-4.13-1.39a6.17,6.17,0,0,1-3.75-3.59Z"></path><path d="M353.13,220.1l-1.35,4.34a6.14,6.14,0,0,1-4,4l-4.35,1.36,4.37,1.49a6.13,6.13,0,0,1,3.83,3.8l1.54,4.44,1.71-4.64a6.18,6.18,0,0,1,3.83-3.71l4.19-1.38-4.13-1.4a6.14,6.14,0,0,1-3.75-3.59Z"></path><path d="M134.26,104.19,133.7,106a2.52,2.52,0,0,1-1.66,1.67l-1.8.56,1.81.61a2.58,2.58,0,0,1,1.58,1.58l.63,1.83.71-1.92a2.55,2.55,0,0,1,1.58-1.53l1.73-.57-1.7-.58a2.52,2.52,0,0,1-1.55-1.48Z"></path><path d="M334.12,253.41l-.56,1.8a2.52,2.52,0,0,1-1.67,1.66l-1.79.56,1.8.62a2.52,2.52,0,0,1,1.58,1.57l.64,1.83.7-1.91a2.52,2.52,0,0,1,1.59-1.53l1.73-.58-1.71-.57a2.55,2.55,0,0,1-1.55-1.48Z"></path></g><g id="freepik--Floor--inject-326"><path d="M481.11,475.2c0,.15-103.48.26-231.1.26s-231.12-.11-231.12-.26,103.46-.26,231.12-.26S481.11,475.06,481.11,475.2Z" style="fill:#263238"></path></g></svg>